<?xml version="1.0" encoding="UTF-8"?>
<svg version="1.1" xmlns="http://www.w3.org/2000/svg" width="512" height="512">
<path d="M0 0 C0.99868909 -0.00297112 1.99737819 -0.00594224 3.02633059 -0.0090034 C6.35908455 -0.01764635 9.69180239 -0.01919493 13.02456665 -0.02069092 C15.42015662 -0.02532233 17.81574585 -0.03034742 20.21133423 -0.03573608 C26.71186048 -0.04883371 33.21237985 -0.05533771 39.71291685 -0.05974674 C43.78023756 -0.06251761 47.84755591 -0.06675656 51.91487503 -0.07125092 C63.19913521 -0.08343966 74.48339352 -0.09373856 85.76766014 -0.09712601 C86.48888342 -0.09734557 87.2101067 -0.09756514 87.95318524 -0.09779136 C88.67603937 -0.09800964 89.39889351 -0.09822791 90.14365232 -0.09845281 C91.60818887 -0.09889626 93.07272542 -0.09934282 94.53726196 -0.09979248 C95.2637076 -0.10001391 95.99015323 -0.10023534 96.73861237 -0.10046348 C108.48858398 -0.10440477 120.23849332 -0.12184006 131.98844092 -0.145152 C144.08217627 -0.16895013 156.17588049 -0.18133175 168.26963961 -0.18249393 C175.04751456 -0.18340615 181.82530843 -0.18904286 188.60316086 -0.20731354 C194.98736375 -0.22388814 201.37141365 -0.2259044 207.75563049 -0.21717453 C210.08628883 -0.21640908 212.41695571 -0.22068117 214.74759293 -0.23063278 C258.07962913 -0.40465983 296.27158717 14.14096113 327.37026978 44.66778564 C335.82133285 53.25263113 342.72223089 62.77794547 348.81997681 73.14044189 C349.16657349 73.72519287 349.51317017 74.30994385 349.87026978 74.91241455 C362.01010239 95.68527045 368.98307225 119.22610484 368.9604187 143.32046509 C368.96487538 144.81849873 368.96487538 144.81849873 368.9694221 146.34679568 C368.97806505 149.67954963 368.97961363 153.01226748 368.98110962 156.34503174 C368.98574103 158.7406217 368.99076612 161.13621093 368.99615479 163.53179932 C369.00925242 170.03232557 369.01575642 176.53284494 369.02016544 183.03338194 C369.02293631 187.10070264 369.02717527 191.168021 369.03166962 195.23534012 C369.04385836 206.5196003 369.05415726 217.80385861 369.05754471 229.08812523 C369.05776427 229.80934851 369.05798384 230.53057179 369.05821006 231.27365033 C369.05842834 231.99650446 369.05864662 232.7193586 369.05887151 233.46411741 C369.05931496 234.92865396 369.05976152 236.3931905 369.06021118 237.85772705 C369.06043261 238.58417268 369.06065404 239.31061832 369.06088218 240.05907746 C369.06482347 251.80904907 369.08225876 263.55895841 369.1055707 275.308906 C369.12936883 287.40264135 369.14175045 299.49634558 369.14291263 311.5901047 C369.14382485 318.36797965 369.14946156 325.14577352 369.16773224 331.92362595 C369.18430684 338.30782883 369.1863231 344.69187874 369.17759323 351.07609558 C369.17682778 353.40675392 369.18109987 355.7374208 369.19105148 358.06805801 C369.36507853 401.40009422 354.81945758 439.59205226 324.29263306 470.69073486 C315.70778757 479.14179794 306.18247323 486.04269597 295.81997681 492.14044189 C295.23522583 492.48703857 294.65047485 492.83363525 294.04800415 493.19073486 C273.27514825 505.33056748 249.73431386 512.30353734 225.63995361 512.28088379 C224.64126452 512.28385491 223.64257542 512.28682603 222.61362302 512.28988719 C219.28086907 512.29853014 215.94815122 512.30007872 212.61538696 512.30157471 C210.219797 512.30620611 207.82420777 512.31123121 205.42861938 512.31661987 C198.92809313 512.3297175 192.42757376 512.3362215 185.92703676 512.34063053 C181.85971606 512.3434014 177.7923977 512.34764035 173.72507858 512.3521347 C162.4408184 512.36432345 151.15656009 512.37462235 139.87229347 512.3780098 C138.79045855 512.37833915 138.79045855 512.37833915 137.68676838 512.37867515 C136.96391424 512.37889343 136.2410601 512.3791117 135.49630129 512.3793366 C134.03176474 512.37978005 132.5672282 512.38022661 131.10269165 512.38067627 C130.37624602 512.3808977 129.64980038 512.38111913 128.90134124 512.38134727 C117.15136963 512.38528855 105.40146029 512.40272385 93.6515127 512.42603579 C81.55777735 512.44983392 69.46407312 512.46221554 57.370314 512.46337771 C50.59243905 512.46428994 43.81464518 512.46992664 37.03679276 512.48819733 C30.65258987 512.50477193 24.26853996 512.50678819 17.88432312 512.49805832 C15.55366478 512.49729287 13.2229979 512.50156496 10.89236069 512.51151657 C-32.43967552 512.68554362 -70.63163355 498.13992266 -101.73031616 467.61309814 C-110.18137924 459.02825266 -117.08227727 449.50293832 -123.18002319 439.14044189 C-123.52661987 438.55569092 -123.87321655 437.97093994 -124.23031616 437.36846924 C-139.15366328 411.83265263 -143.96888288 384.22270078 -143.82699585 354.93341064 C-143.83379502 352.5269607 -143.84271086 350.12051597 -143.85354614 347.71408081 C-143.87607264 341.2594098 -143.86761464 334.80514453 -143.85165071 328.35046768 C-143.84267249 324.30057544 -143.84447118 320.25073325 -143.84910202 316.20083618 C-143.84986819 315.52315191 -143.85063435 314.84546765 -143.85142373 314.14724749 C-143.85302277 312.7694531 -143.85464384 311.39165874 -143.85628669 310.0138644 C-143.87045789 297.17115175 -143.8542884 284.32861914 -143.82728486 271.48593605 C-143.80495393 260.5272569 -143.80883651 249.56884283 -143.83187866 238.61016846 C-143.85879081 225.80542442 -143.86908541 213.00083715 -143.85381734 200.19606876 C-143.85222502 198.82406174 -143.85065316 197.45205468 -143.84910202 196.08004761 C-143.84833064 195.40544076 -143.84755927 194.73083391 -143.84676451 194.03578442 C-143.84249339 189.33985864 -143.8498857 184.64406472 -143.86149979 179.94815063 C-143.87611257 173.59803788 -143.86562045 167.2484178 -143.8370285 160.89835739 C-143.83050645 158.58998806 -143.83215941 156.2815761 -143.84334183 153.97322464 C-144.02984188 111.50758545 -129.37532516 73.193066 -99.75082397 42.66778564 C-73.70742027 16.77431011 -36.88675524 -0.03468097 0 0 Z " fill="#126AD6" transform="translate(143.18002319335938,-0.14044189453125)"/>
<path d="M0 0 C6.882603 3.92186848 11.28671487 9.32370608 13.625 16.9375 C14.0308042 20.29842099 14.00525605 23.62181369 13.96557617 27.00366211 C13.96601425 27.98979492 13.96645233 28.97592773 13.96690369 29.99194336 C13.96482309 33.23311552 13.9415261 36.47376258 13.91796875 39.71484375 C13.91237021 41.96928118 13.90810133 44.22372228 13.90510559 46.47816467 C13.89367718 52.39818482 13.86422703 58.3179825 13.83099365 64.23791504 C13.80024968 70.28423046 13.786591 76.33058199 13.77148438 82.37695312 C13.73935558 94.23056623 13.68818331 106.08401458 13.625 117.9375 C14.84529404 117.93083817 16.06558807 117.92417633 17.32286072 117.91731262 C28.84277047 117.85640451 40.36264739 117.81148075 51.88268185 117.78206348 C57.80475024 117.76643119 63.72668826 117.74523724 69.64868164 117.71118164 C75.36749611 117.67850158 81.08618546 117.66062867 86.80508614 117.65286827 C88.98308849 117.6473403 91.16108427 117.63654558 93.33903313 117.62030983 C96.39796434 117.59842087 99.45638348 117.59553789 102.51538086 117.59692383 C103.40874649 117.586138 104.30211212 117.57535217 105.22254944 117.5642395 C113.44990726 117.60437511 120.93316619 119.29630647 127.05078125 125.0859375 C132.17287958 131.11044025 134.44840293 137.36890911 134.046875 145.265625 C132.94441634 152.24786317 129.63718673 158.0392266 124.625 162.9375 C119.46310537 166.15209306 114.50023153 168.06551425 108.38555908 168.05775452 C107.12780922 168.05981651 107.12780922 168.05981651 105.84465027 168.06192017 C104.93330826 168.05832489 104.02196625 168.05472961 103.08300781 168.05102539 C101.63372643 168.05124443 101.63372643 168.05124443 100.15516663 168.0514679 C96.96279655 168.05077144 93.77048488 168.0429915 90.578125 168.03515625 C88.36423779 168.03329112 86.15035017 168.03186767 83.9364624 168.03086853 C78.11019755 168.02705082 72.28395764 168.01722687 66.45770264 168.00616455 C60.51216977 167.99593441 54.56663288 167.99136747 48.62109375 167.98632812 C36.95571821 167.97560396 25.29036118 167.95853646 13.625 167.9375 C13.63388245 169.17032211 13.64276489 170.40314423 13.6519165 171.67332458 C13.73312381 183.31094026 13.79302382 194.94849818 13.83224869 206.58633327 C13.85309277 212.56898782 13.88135278 218.55141299 13.92675781 224.53393555 C13.97032827 230.31111457 13.99416101 236.08807343 14.00450897 241.86540413 C14.01188019 244.06575039 14.02627442 246.26608507 14.04792023 248.4663372 C14.07710253 251.55651441 14.08094974 254.6457904 14.07910156 257.73608398 C14.10067322 259.09015854 14.10067322 259.09015854 14.12268066 260.47158813 C14.07421262 267.99731673 11.87035281 274.19162435 7.375 280.25 C1.97245128 285.52976352 -4.49323353 287.9946239 -12 288.3125 C-18.73859577 288.22304961 -24.16139602 285.72487861 -29.23046875 281.328125 C-35.6301375 274.43860506 -36.82341673 266.91123734 -36.71557617 257.84960938 C-36.71623329 256.38482147 -36.71623329 256.38482147 -36.71690369 254.89044189 C-36.71482638 251.68716912 -36.69154514 248.48443048 -36.66796875 245.28125 C-36.66236904 243.05066209 -36.65810071 240.82007047 -36.65510559 238.58947754 C-36.64368641 232.73687438 -36.61424431 226.88449684 -36.58099365 221.03198242 C-36.55022968 215.05260265 -36.53658674 209.07318621 -36.52148438 203.09375 C-36.48937189 191.37490122 -36.43821091 179.65621942 -36.375 167.9375 C-37.61812958 167.94860306 -38.86125916 167.95970612 -40.14205933 167.97114563 C-51.88234685 168.07269603 -63.62254474 168.14754924 -75.36317253 168.19656086 C-81.39855187 168.22260578 -87.4335754 168.25791127 -93.46875 168.31469727 C-99.29781699 168.369198 -105.12654267 168.39895891 -110.95584488 168.41188622 C-113.17492161 168.42109362 -115.39398059 168.43907349 -117.61291122 168.46615028 C-120.73176554 168.50267986 -123.84922642 168.50743526 -126.96826172 168.50512695 C-128.33096947 168.53209152 -128.33096947 168.53209152 -129.72120667 168.55960083 C-137.19076926 168.50014956 -143.65186134 166.25655805 -149.29284477 161.22780323 C-154.40893386 155.8317871 -156.48159892 149.91288862 -156.875 142.5625 C-156.6569015 135.72558612 -154.26965359 130.19656366 -149.73046875 125.0859375 C-142.88002102 118.80764906 -136.32547981 117.49112983 -127.30883789 117.59692383 C-125.82963867 117.59626671 -125.82963867 117.59626671 -124.32055664 117.59559631 C-121.07938448 117.59767691 -117.83873742 117.6209739 -114.59765625 117.64453125 C-112.34321882 117.65012979 -110.08877772 117.65439867 -107.83433533 117.65739441 C-101.91431518 117.66882282 -95.9945175 117.69827297 -90.07458496 117.73150635 C-84.02826954 117.76225032 -77.98191801 117.775909 -71.93554688 117.79101562 C-60.08193377 117.82314442 -48.22848542 117.87431669 -36.375 117.9375 C-36.38610306 116.69437042 -36.39720612 115.45124084 -36.40864563 114.17044067 C-36.51019603 102.43015315 -36.58504924 90.68995526 -36.63406086 78.94932747 C-36.66010578 72.91394813 -36.69541127 66.8789246 -36.75219727 60.84375 C-36.806698 55.01468301 -36.83645891 49.18595733 -36.84938622 43.35665512 C-36.85859362 41.13757839 -36.87657349 38.91851941 -36.90365028 36.69958878 C-36.94017986 33.58073446 -36.94493526 30.46327358 -36.94262695 27.34423828 C-36.96060333 26.43576645 -36.97857971 25.52729462 -36.99710083 24.59129333 C-36.93770912 17.12921468 -34.71486756 10.6172483 -29.63429737 5.01965523 C-21.32618592 -2.70566161 -10.40496599 -4.7552107 0 0 Z " fill="#FEFEFE" transform="translate(267.375,113.0625)"/>
</svg>
