<?xml version="1.0" encoding="UTF-8"?>
<svg version="1.1" xmlns="http://www.w3.org/2000/svg" width="512" height="512">
<path d="M0 0 C1.01790619 0.00215515 2.03581238 0.0043103 3.08456421 0.00653076 C17.69363523 0.05620146 32.02575853 0.30709809 46.375 3.3125 C47.34985352 3.51117676 48.32470703 3.70985352 49.32910156 3.91455078 C97.7109774 14.03517194 141.69928269 35.9516877 177.375 70.3125 C178.3640332 71.26068604 178.3640332 71.26068604 179.37304688 72.22802734 C188.86130305 81.37247479 197.6012044 90.66984009 205.375 101.3125 C206.23306152 102.46355017 207.09113451 103.61459177 207.94921875 104.765625 C213.98736829 112.95680614 219.34595521 121.47054105 224.375 130.3125 C224.73948242 130.94430176 225.10396484 131.57610352 225.47949219 132.22705078 C247.08534998 169.97532572 256.85198095 212.74189997 256.6875 255.9375 C256.68534485 256.95540619 256.6831897 257.97331238 256.68096924 259.02206421 C256.63129854 273.63113523 256.38040191 287.96325853 253.375 302.3125 C253.07698486 303.77478027 253.07698486 303.77478027 252.77294922 305.26660156 C242.65232806 353.6484774 220.7358123 397.63678269 186.375 433.3125 C185.74287598 433.97185547 185.11075195 434.63121094 184.45947266 435.31054688 C175.31502521 444.79880305 166.01765991 453.5387044 155.375 461.3125 C154.22394983 462.17056152 153.07290823 463.02863451 151.921875 463.88671875 C143.73224019 469.92427396 135.22961724 475.30707302 126.375 480.3125 C125.66778809 480.7146875 124.96057617 481.116875 124.23193359 481.53125 C101.09654164 494.5566741 75.92537591 503.30551461 49.9375 508.625 C49.21860596 508.77235596 48.49971191 508.91971191 47.7590332 509.0715332 C33.08339502 511.86090125 18.55831162 512.66142619 3.64770508 512.62817383 C0.70811513 512.6250221 -2.2304558 512.64854926 -5.16992188 512.67382812 C-18.54306192 512.71848737 -31.43916711 511.51301542 -44.625 509.3125 C-46.33055054 509.03031616 -46.33055054 509.03031616 -48.07055664 508.74243164 C-91.33802759 500.97044532 -132.38793216 480.98345309 -165.625 452.3125 C-166.37007813 451.67828125 -167.11515625 451.0440625 -167.8828125 450.390625 C-181.38779833 438.57948485 -194.05918743 425.82889772 -204.625 411.3125 C-205.48149066 410.16255169 -206.33826433 409.01281411 -207.1953125 407.86328125 C-213.23534209 399.67315742 -218.61867614 391.16870382 -223.625 382.3125 C-224.0271875 381.60528809 -224.429375 380.89807617 -224.84375 380.16943359 C-237.8691741 357.03404164 -246.61801461 331.86287591 -251.9375 305.875 C-252.08485596 305.15610596 -252.23221191 304.43721191 -252.3840332 303.6965332 C-255.35789088 288.05024391 -255.99800362 272.57681954 -255.9375 256.6875 C-255.93534485 255.66959381 -255.9331897 254.65168762 -255.93096924 253.60293579 C-255.88129854 238.99386477 -255.63040191 224.66174147 -252.625 210.3125 C-252.42632324 209.33764648 -252.22764648 208.36279297 -252.02294922 207.35839844 C-241.90232806 158.9765226 -219.9858123 114.98821731 -185.625 79.3125 C-184.99287598 78.65314453 -184.36075195 77.99378906 -183.70947266 77.31445312 C-174.56502521 67.82619695 -165.26765991 59.0862956 -154.625 51.3125 C-153.47394983 50.45443848 -152.32290823 49.59636549 -151.171875 48.73828125 C-142.98224019 42.70072604 -134.47961724 37.31792698 -125.625 32.3125 C-124.91778809 31.9103125 -124.21057617 31.508125 -123.48193359 31.09375 C-100.34654164 18.0683259 -75.17537591 9.31948539 -49.1875 4 C-48.46860596 3.85264404 -47.74971191 3.70528809 -47.0090332 3.5534668 C-31.36274391 0.57960912 -15.88931954 -0.06050362 0 0 Z " fill="#2492FF" transform="translate(255.625,-0.3125)"/>
<path d="M0 0 C1.30180132 -0.00679667 1.30180132 -0.00679667 2.62990165 -0.01373065 C5.53154082 -0.02636836 8.43299215 -0.02475467 11.33465576 -0.02310181 C13.41781353 -0.02908749 15.50096907 -0.03589313 17.5841217 -0.04345703 C23.23922804 -0.06112124 28.89427384 -0.06581263 34.5494051 -0.0670886 C38.08431184 -0.06851065 41.61920322 -0.07278128 45.15410614 -0.07808304 C57.49148027 -0.09658548 69.82881119 -0.10475348 82.16619873 -0.10317993 C93.65759664 -0.10197883 105.14880662 -0.12307457 116.64015698 -0.15466726 C126.51297298 -0.18084071 136.38572765 -0.19154676 146.25857806 -0.19026911 C152.1520592 -0.18975975 158.04537337 -0.19542883 163.93881989 -0.21662521 C169.48419683 -0.23602515 175.02924785 -0.23611983 180.57463646 -0.22159195 C182.60549331 -0.21950488 184.63637066 -0.22419865 186.66719246 -0.23631287 C200.32162628 -0.31246331 211.90560437 0.21334703 222.25946045 10.26742554 C227.04539659 16.35640282 229.50201945 22.63071545 229.52688599 30.42642212 C229.53968094 32.24719521 229.53968094 32.24719521 229.55273438 34.10475159 C229.551828 35.42332657 229.55092163 36.74190155 229.54998779 38.10043335 C229.55597717 39.51365004 229.56278366 40.92686347 229.57034302 42.34007263 C229.58797083 46.16879666 229.5926971 49.99743121 229.59397459 53.8261919 C229.59539883 56.22203558 229.59967365 58.6178567 229.60496902 61.01369476 C229.62346025 69.38295427 229.63164097 77.75215018 229.63006592 86.12142944 C229.62886549 93.90471781 229.64995059 101.68772843 229.68155324 109.47094655 C229.70776829 116.16757224 229.71843099 122.86410753 229.7171551 129.5607841 C229.7166469 133.5539914 229.72225056 137.54695185 229.7435112 141.54010773 C229.76298154 145.29952583 229.76295875 149.05846393 229.74847794 152.8178997 C229.74541468 154.84128541 229.76200543 156.86467161 229.77935791 158.88798523 C229.70735163 169.40379791 227.63896486 177.69415676 220.32977295 185.50961304 C214.26638772 190.65777031 207.14058931 193.42920478 199.25604248 193.29779053 C198.00042511 193.28012131 196.74480774 193.26245209 195.45114136 193.24424744 C194.77310581 193.23238466 194.09507027 193.22052189 193.39648819 193.20829964 C189.67518586 193.14351898 185.95363552 193.0963174 182.2321167 193.0458374 C181.43772249 193.03455614 180.64332829 193.02327487 179.82486153 193.01165175 C169.62608887 192.87004467 159.42665351 192.82066315 149.22708893 192.76974559 C139.3065106 192.7199747 129.38859463 192.64066402 119.46942139 192.46176147 C111.58521927 192.31972427 103.70366559 192.2463778 95.81814003 192.25138152 C91.65159446 192.25159945 87.49149436 192.21937249 83.32641602 192.1039238 C62.38238422 191.1642747 62.38238422 191.1642747 44.58343506 200.86556435 C41.61833313 204.08577832 38.94662306 207.47228369 36.29020691 210.94836807 C23.58793052 225.45402374 -0.11762674 232.55565225 -18.74053955 234.26742554 C-17.09545922 230.7674332 -15.06869755 227.58812287 -12.99053955 224.32992554 C-7.27338861 215.18144147 -2.88999064 205.59062633 0.25946045 195.26742554 C-0.56296143 195.12047241 -1.3853833 194.97351929 -2.23272705 194.82211304 C-13.2847725 192.60149421 -22.22674466 188.80086045 -28.74053955 179.26742554 C-32.03123979 173.59380444 -32.86116065 168.75597641 -32.88771057 162.25991821 C-32.89486588 161.05441315 -32.90202118 159.84890808 -32.90939331 158.60687256 C-32.91208221 157.29248199 -32.91477112 155.97809143 -32.9175415 154.62387085 C-32.92381129 153.21903314 -32.93045855 151.81419707 -32.93745422 150.40936279 C-32.95843411 145.80477032 -32.9688503 141.20017774 -32.9788208 136.59555054 C-32.9828705 135.00679253 -32.98698748 133.4180347 -32.99117088 131.82927704 C-33.0102085 124.36431996 -33.02444303 116.89937269 -33.03278285 109.43439603 C-33.04255298 100.83256298 -33.06887251 92.2309874 -33.10928375 83.62924504 C-33.13948991 76.97003315 -33.15425594 70.3108949 -33.15756387 63.65161586 C-33.15990901 59.67908834 -33.16879945 55.70683634 -33.19402504 51.73438263 C-33.21739029 47.99469993 -33.22150546 44.25547254 -33.21126366 40.51573563 C-33.21053622 38.50048153 -33.22956714 36.48525011 -33.24932861 34.47009277 C-33.20760301 27.15839885 -32.44862226 21.62691863 -28.74053955 15.26742554 C-28.2713208 14.45789429 -27.80210205 13.64836304 -27.31866455 12.81430054 C-20.3350345 3.36585989 -11.52816684 -0.04438316 0 0 Z " fill="#2492FF" transform="translate(157.74053955078125,138.73257446289063)"/>
<path d="M0 0 C0.88832502 -0.00397441 1.77665004 -0.00794881 2.69189399 -0.01204365 C5.63883425 -0.0215913 8.5852853 -0.0098945 11.5322113 0.00190735 C13.65698932 -0.00052308 15.78176619 -0.00424484 17.90653992 -0.00915527 C23.65643018 -0.01853282 29.40614927 -0.00916545 35.15602612 0.00417686 C41.18294619 0.01552315 47.20985821 0.01138142 53.23678589 0.00942993 C63.35530888 0.00854803 73.47376474 0.01960623 83.5922699 0.03804016 C95.28026122 0.05921186 106.96815427 0.06271579 118.65616089 0.0564782 C129.91473787 0.05077809 141.17328034 0.05643749 152.43185234 0.06765175 C157.21671628 0.07228856 162.00155906 0.07317557 166.78642464 0.0710659 C172.42289361 0.0691784 178.05926297 0.07732251 183.69570923 0.0931263 C185.76084417 0.09735842 187.82598924 0.09822694 189.89112663 0.0954361 C192.71642579 0.09219797 195.54143033 0.10133704 198.36669922 0.11352539 C199.17799823 0.10974607 199.98929724 0.10596674 200.82518107 0.10207289 C214.34958674 0.20482418 226.77680105 5.14884169 236.75267029 14.33906555 C248.51015522 26.70007157 250.92413749 40.33703077 250.91038513 56.77558899 C250.91637985 58.21393682 250.92318755 59.65228146 250.93074036 61.09062195 C250.94831242 64.97515294 250.95309202 68.85959566 250.95437193 72.74416256 C250.95579918 75.17773529 250.96007961 77.61128598 250.96536636 80.04485321 C250.98383813 88.55374563 250.99204063 97.06257562 250.99046326 105.57148743 C250.9892629 113.47236068 251.0103518 121.37296031 251.04195058 129.27376437 C251.06820061 136.08259817 251.0788269 142.89134308 251.07755244 149.70022702 C251.07704533 153.75552341 251.08258817 157.81057638 251.10390854 161.86582184 C251.12343873 165.68438219 251.12331601 169.5024706 251.10887527 173.32104874 C251.10680418 174.71207758 251.11138508 176.10313714 251.12359619 177.49411392 C251.2526988 193.23619005 247.14808445 206.50225934 236.30735779 218.1867218 C223.97452106 229.74355981 210.92510476 231.5618643 194.75267029 231.34150696 C192.6170158 231.31871903 190.4813469 231.29795262 188.34567165 231.27721 C186.83497235 231.26239993 185.32427901 231.24697007 183.81359196 231.23095918 C174.09531798 231.12959255 164.3766982 231.10589929 154.65798378 231.07783628 C145.21037943 231.05002721 135.76444057 230.99829853 126.31761169 230.87031555 C118.79680468 230.76857113 111.27778342 230.72063896 103.75627136 230.73453176 C99.7842612 230.73992956 95.81643353 230.71946728 91.84526062 230.63364029 C72.77162078 229.57866224 72.77162078 229.57866224 56.34741211 237.61157799 C54.03435641 240.14309183 51.99962226 242.78999155 50.02432251 245.59008408 C38.36111847 260.40623575 10.4345569 269.63295976 -7.77467346 272.15156555 C-9.06438049 272.2617804 -9.06438049 272.2617804 -10.38014221 272.3742218 C-11.5183844 272.47863586 -12.65662659 272.58304993 -13.82936096 272.69062805 C-21.04500815 273.05102701 -25.91249095 272.5687984 -31.67311096 268.02656555 C-36.17723988 263.66673367 -37.19705854 259.60784256 -37.69264221 253.5617218 C-37.55662548 246.17601327 -32.10274193 240.52361089 -27.99732971 234.75312805 C-26.15365206 232.04105151 -24.7167801 229.3620006 -23.38014221 226.3742218 C-24.00920471 225.97332336 -24.63826721 225.57242493 -25.28639221 225.15937805 C-35.18742856 218.58353915 -41.70096483 211.32857505 -46.38014221 200.3742218 C-46.73334534 199.57500305 -47.08654846 198.7757843 -47.45045471 197.9523468 C-49.20430179 193.08873726 -49.50622727 188.28230548 -49.52058411 183.14602661 C-49.52629425 181.91679474 -49.53200439 180.68756287 -49.53788757 179.42108154 C-49.5391327 178.07188426 -49.54025784 176.72268686 -49.54127502 175.37348938 C-49.54590814 173.94219333 -49.55093346 172.51089851 -49.55632019 171.0796051 C-49.56939957 167.20124678 -49.57588053 163.32290573 -49.58033085 159.44452882 C-49.5832691 157.01719258 -49.58737533 154.58986098 -49.59183502 152.16252708 C-49.60549888 144.55553931 -49.61517068 136.94856224 -49.61903691 129.34156305 C-49.62351354 120.58359674 -49.64104771 111.82578683 -49.67003751 103.06786805 C-49.69171084 96.28291472 -49.70174422 89.4980052 -49.70307803 82.71301764 C-49.70412212 78.66783763 -49.70994486 74.62280484 -49.72789764 70.57766151 C-49.74447621 66.76824943 -49.74648688 62.9590937 -49.73775864 59.1496582 C-49.73699344 57.75940447 -49.74126196 56.36913638 -49.75121689 54.97891808 C-49.85871695 39.01741023 -46.192653 25.56027729 -35.03248596 13.76875305 C-24.9303146 4.6485306 -13.53447848 -0.12336054 0 0 Z M-24.91920471 31.3273468 C-28.68416005 37.09587486 -30.62718463 42.55359845 -30.64083862 49.50198364 C-30.65146584 51.31230324 -30.65146584 51.31230324 -30.66230774 53.15919495 C-30.65983032 54.46999023 -30.65735291 55.78078552 -30.65480042 57.13130188 C-30.6591513 58.53628815 -30.6643357 59.94127205 -30.67028809 61.34625244 C-30.68365092 65.15219204 -30.68425965 68.95803216 -30.68172479 72.76399064 C-30.68065294 75.94715694 -30.68554407 79.13030329 -30.69033021 82.3134653 C-30.70141664 89.82762921 -30.70186808 97.34174313 -30.69581604 104.85591125 C-30.68978027 112.5925955 -30.70207911 120.3290977 -30.72338611 128.0657509 C-30.74103634 134.72074628 -30.74699797 141.3756839 -30.74374837 148.03070182 C-30.74194035 151.9997949 -30.74452313 155.9687582 -30.75846291 159.93782997 C-30.77109199 163.6733838 -30.76904955 167.40865531 -30.75605202 171.14420509 C-30.75258071 173.15703196 -30.76382751 175.16986765 -30.77561951 177.18266296 C-30.71390634 187.8754326 -29.02560042 196.53060917 -21.38014221 204.3742218 C-15.44109167 209.0982285 -9.5465415 212.1031606 -2.06764221 213.4992218 C-0.74313049 213.75058899 -0.74313049 213.75058899 0.60813904 214.0070343 C1.27200623 214.12820618 1.93587341 214.24937805 2.61985779 214.3742218 C-1.8436646 227.11079302 -6.65005658 239.32213306 -15.31373596 249.88594055 C-16.5742917 251.34002729 -16.5742917 251.34002729 -16.38014221 253.3742218 C3.3427491 251.79767747 25.56639972 243.63154029 39.61985779 229.3742218 C40.58958674 228.07443901 41.5385801 226.7590111 42.46986389 225.43141174 C46.97126052 219.4284348 51.6035096 214.42825717 59.05918121 212.47161865 C68.53388274 211.17784917 78.06751729 211.43994375 87.60606718 211.68171597 C91.79182688 211.76946731 95.97743308 211.76166494 100.16395569 211.76368713 C108.07899373 211.78096247 115.99093133 211.87591274 123.90489829 212.002702 C135.51237664 212.18585692 147.12068334 212.26689336 158.72937965 212.32878494 C159.58431114 212.33335449 160.43924262 212.33792404 161.32008111 212.34263206 C163.0256157 212.35164726 164.7311517 212.36040012 166.43668902 212.36888337 C171.40211835 212.39643197 176.36620016 212.45209978 181.33104396 212.53275919 C184.4234252 212.58023423 187.51584804 212.61180788 190.60845566 212.64035988 C192.03310038 212.65727955 193.45768316 212.68124374 194.88207245 212.71308708 C206.49065611 212.96840665 215.32484485 211.35520175 223.93235779 203.2335968 C229.33083374 197.28527607 231.8618436 190.19375921 231.88728333 182.20849609 C231.89581329 180.99320221 231.90434326 179.77790833 231.91313171 178.52578735 C231.9124328 177.19230639 231.9115098 175.85882552 231.91038513 174.52534485 C231.91637444 173.11050564 231.92318092 171.6956697 231.93074036 170.28083801 C231.94836725 166.44804905 231.95309435 162.61534946 231.95437193 158.78252387 C231.95579604 156.38467788 231.96007057 153.98685443 231.96536636 151.58901405 C231.98385614 143.21442351 231.99203835 134.83989653 231.99046326 126.46528625 C231.98926235 118.67402568 232.01035733 110.88304234 232.04195058 103.09185189 C232.06815204 96.39014633 232.07882893 89.6885311 232.07755244 82.98677474 C232.07704391 78.98968709 232.08266613 74.99284592 232.10390854 70.99580956 C232.1233563 67.23393221 232.12337133 63.47253481 232.10887527 59.71063995 C232.10580692 57.68348347 232.12241799 55.65632661 232.13975525 53.62924194 C232.08949513 46.29747872 231.3304774 40.75366365 227.61985779 34.3742218 C227.1622406 33.56469055 226.70462341 32.7551593 226.23313904 31.9210968 C221.24347815 25.02847215 214.72930251 21.64883549 206.61985779 19.3742218 C203.70236291 19.09181073 200.80205419 19.09552745 197.87258911 19.10679626 C197.004016 19.10226515 196.13544289 19.09773404 195.24054939 19.09306562 C192.33657628 19.08042792 189.43279086 19.08204159 186.52879333 19.08369446 C184.44401305 19.07770882 182.35923499 19.07090319 180.27445984 19.06333923 C174.61528855 19.04567567 168.95617776 19.0409837 163.29698157 19.03970766 C159.76007251 19.03828571 156.22317882 19.03401526 152.68627357 19.02871323 C140.34356841 19.01021177 128.00090644 19.00204276 115.65818787 19.00361633 C104.15881764 19.00481776 92.65963509 18.98371534 81.16031235 18.95212901 C71.28241649 18.92596473 61.40458193 18.9152491 51.52665168 18.91652715 C45.6292901 18.91703674 39.73209532 18.91135519 33.8347683 18.89017105 C28.28693213 18.87078629 22.73942185 18.87066606 17.1915741 18.88520432 C15.15868465 18.8872932 13.12577479 18.88258683 11.0929203 18.8704834 C8.31092528 18.85499615 5.53004914 18.864362 2.74807739 18.87974548 C1.9496137 18.86945836 1.15115 18.85917123 0.32849044 18.84857237 C-9.2477173 18.96504961 -18.95110399 23.75361491 -24.91920471 31.3273468 Z " fill="#FDFEFF" transform="translate(155.38014221191406,119.62577819824219)"/>
</svg>
