<?xml version="1.0" encoding="UTF-8"?>
<svg version="1.1" xmlns="http://www.w3.org/2000/svg" width="512" height="512">
<path d="M0 0 C2.0268162 1.76523252 4.01444407 3.56245931 6 5.375 C6.73605469 6.04015625 7.47210938 6.7053125 8.23046875 7.390625 C30.73143916 28.7687925 45.79365023 61.25002244 47.12280273 92.23803711 C47.7251302 116.17185755 46.26570731 142.26647501 32.75 163.046875 C30.4262605 170.2601497 34.22886411 179.61877439 36.16015625 186.63671875 C36.79492783 188.99544111 37.42969327 191.35416511 38.06445312 193.71289062 C39.06547257 197.4000405 40.06903653 201.08648832 41.07348633 204.77270508 C42.0460303 208.35074451 43.00962973 211.93110811 43.97265625 215.51171875 C44.27575211 216.61182785 44.57884796 217.71193695 44.89112854 218.84538269 C45.30672279 220.39277885 45.30672279 220.39277885 45.73071289 221.97143555 C45.97640518 222.87250534 46.22209747 223.77357513 46.47523499 224.70195007 C47.90984952 232.00959477 47.90984952 232.00959477 45.74578857 235.25718689 C42.47085386 237.35409886 38.6164779 236.08969207 35 235.375 C30.94121149 234.43291824 26.93385531 233.3381524 22.921875 232.21484375 C21.79227356 231.90551407 20.66267212 231.59618439 19.49884033 231.27748108 C15.91409056 230.295575 12.33181207 229.30506485 8.75 228.3125 C4.01758757 227.00184458 -0.71703972 225.69965557 -5.453125 224.40234375 C-6.53652161 224.09924789 -7.61991821 223.79615204 -8.73614502 223.48387146 C-9.74779724 223.20680862 -10.75944946 222.92974579 -11.80175781 222.64428711 C-12.68728333 222.39859482 -13.57280884 222.15290253 -14.48516846 221.89976501 C-17.1170293 221.35057972 -19.32263046 221.09822244 -22 221.375 C-23.59707344 223.39941535 -24.76454299 225.2058304 -26 227.4375 C-44.06045155 257.54212158 -74.65762209 276.4341699 -108.14501953 284.91845703 C-138.90677013 292.19861751 -170.82038315 286.76561492 -199 273.375 C-199.33 273.045 -199.66 272.715 -200 272.375 C-207.61064178 272.41590433 -214.84139433 274.47943663 -222.10546875 276.53515625 C-223.79063347 276.99915077 -223.79063347 276.99915077 -225.50984192 277.47251892 C-230.27817249 278.78548343 -235.04122864 280.1171011 -239.80444336 281.44848633 C-243.29864262 282.42217812 -246.79565487 283.3852227 -250.29296875 284.34765625 C-251.36290573 284.65075211 -252.43284271 284.95384796 -253.53520203 285.26612854 C-258.80968603 286.7155007 -263.52115069 287.96999444 -269 287.375 C-271 285.375 -271 285.375 -271.33227539 282.54296875 C-271.15428662 276.75344381 -269.25431529 271.22054291 -267.68359375 265.6875 C-266.99522033 263.19016545 -266.30707626 260.69276768 -265.61914062 258.1953125 C-264.53026021 254.27651685 -263.43349255 250.35995535 -262.33325195 246.44433594 C-261.26934624 242.6542247 -260.226904 238.85833234 -259.18359375 235.0625 C-258.85032578 233.89565674 -258.5170578 232.72881348 -258.1736908 231.52661133 C-256.09972431 223.94539554 -255.19704742 218.56681884 -258.671875 211.2734375 C-259.00437256 210.54608398 -259.33687012 209.81873047 -259.67944336 209.06933594 C-260.03272705 208.30395508 -260.38601074 207.53857422 -260.75 206.75 C-275.05991841 174.3993745 -274.6546164 137.17648619 -262.234375 104.3515625 C-256.70328025 90.19846711 -248.88836037 77.92073151 -239 66.375 C-238.26394531 65.49328125 -237.52789062 64.6115625 -236.76953125 63.703125 C-228.89801648 54.61171805 -219.85520463 46.98598754 -209.3125 41.1875 C-202.9917079 37.32479372 -199.76375731 31.6654732 -195.8203125 25.5859375 C-186.015499 10.60044469 -172.91015758 -0.91730748 -158 -10.625 C-157.08992188 -11.23214844 -156.17984375 -11.83929688 -155.2421875 -12.46484375 C-107.91219147 -42.19778997 -42.18169705 -35.69125422 0 0 Z M-115 -16.625 C-115.65871094 -16.45871094 -116.31742187 -16.29242188 -116.99609375 -16.12109375 C-137.76315278 -10.65607822 -155.53724305 -0.51598298 -171 14.375 C-171.92554688 15.26058594 -172.85109375 16.14617187 -173.8046875 17.05859375 C-178.83464455 21.59878349 -178.83464455 21.59878349 -182 27.375 C-175.17245749 26.03780849 -168.37725222 24.58714665 -161.58984375 23.05859375 C-143.71397357 19.65459236 -124.68864777 20.25617814 -107 24.375 C-106.31454102 24.5306543 -105.62908203 24.68630859 -104.92285156 24.84667969 C-87.27795958 29.01456789 -70.23191101 37.15755024 -56 48.375 C-55.14849365 49.04354004 -55.14849365 49.04354004 -54.27978516 49.72558594 C-27.22529717 71.21285167 -10.12001954 102.31609678 -5.46875 136.55078125 C-2.66221441 161.87870185 -6.96922491 185.77422439 -16 209.375 C-6.74787846 212.29714686 2.55472109 214.97200651 11.91503906 217.52197266 C14.15810682 218.13403379 16.39936156 218.75246228 18.640625 219.37109375 C20.07541588 219.76340486 21.51030793 220.15534622 22.9453125 220.546875 C23.94366623 220.82334869 23.94366623 220.82334869 24.96218872 221.10540771 C27.74490687 221.85800803 30.10065683 222.375 33 222.375 C32.31433137 216.43490704 30.87615142 210.84861914 29.27734375 205.09375 C28.73346524 203.09772673 28.18985354 201.10163074 27.64648438 199.10546875 C26.79181337 195.98421122 25.9343945 192.86376765 25.07202148 189.74462891 C24.23685399 186.71723614 23.41268679 183.68701204 22.58984375 180.65625 C22.33049545 179.73001831 22.07114716 178.80378662 21.80393982 177.8494873 C19.52024092 169.39178166 19.30260066 163.72701835 23.6875 155.9375 C38.21335047 128.41179881 39.69197932 95.89012575 30.8125 66.3125 C20.79904876 35.15910968 -0.56151653 9.10360612 -29.58984375 -6.08203125 C-56.12199417 -19.40125252 -85.94785139 -23.96023434 -115 -16.625 Z M-224 67.375 C-224.60328125 67.91382813 -225.2065625 68.45265625 -225.828125 69.0078125 C-247.34780695 89.01910552 -259.0974703 120.58756134 -260.203125 149.5234375 C-260.60073315 170.78171955 -256.95981154 193.95042998 -245.06640625 212.0234375 C-242.0597398 218.6535225 -245.01285544 226.06402897 -246.84375 232.671875 C-247.13229858 233.74246155 -247.42084717 234.8130481 -247.71813965 235.91607666 C-248.63718691 239.32134744 -249.56788492 242.72328523 -250.5 246.125 C-251.43035813 249.54143642 -252.35819727 252.95851735 -253.28186035 256.37677002 C-253.85625369 258.50029331 -254.43482113 260.62269279 -255.01794434 262.74383545 C-255.27821411 263.70203186 -255.53848389 264.66022827 -255.80664062 265.64746094 C-256.03758423 266.49016541 -256.26852783 267.33286987 -256.50646973 268.20111084 C-257.11069635 270.49105778 -257.11069635 270.49105778 -257 273.375 C-249.92506163 272.36341155 -243.08454974 270.66128038 -236.203125 268.7734375 C-235.31983521 268.53127502 -234.43654541 268.28911255 -233.52648926 268.03961182 C-229.82936488 267.02157387 -226.13409541 265.99711028 -222.44091797 264.96484375 C-219.71789921 264.20577426 -216.99202993 263.4577381 -214.265625 262.7109375 C-213.43943665 262.47660004 -212.61324829 262.24226257 -211.76202393 262.00082397 C-203.70511115 259.80623797 -198.18533154 259.79155517 -190.8125 264 C-164.29242017 278.13858448 -132.40425287 280.19606992 -103.73828125 271.8984375 C-83.59230766 265.715595 -67.35281061 255.87765497 -52 241.375 C-51.24976563 240.68921875 -50.49953125 240.0034375 -49.7265625 239.296875 C-29.24532907 219.89360123 -15.99932482 189.5298905 -15 161.375 C-14.96003906 160.2509375 -14.92007813 159.126875 -14.87890625 157.96875 C-14.2804818 123.89375797 -26.73793078 92.62012975 -50.30078125 68.11328125 C-51.63689453 66.75783203 -51.63689453 66.75783203 -53 65.375 C-53.77730469 64.58480469 -54.55460938 63.79460937 -55.35546875 62.98046875 C-75.61197645 43.60615402 -104.35854496 33.00782857 -132 31.375 C-132.86496094 31.32085937 -133.72992188 31.26671875 -134.62109375 31.2109375 C-168.54704572 30.15225531 -199.68291545 44.48339972 -224 67.375 Z " fill="#000000" transform="translate(368,127.625)"/>
<path d="M0 0 C2.5224382 1.94588089 4.00590399 3.5599155 4.5234375 6.7734375 C4.59389369 10.90217052 4.5549057 13.09965089 2.3125 16.6875 C-1.22064057 20.01280877 -3.85911263 20.01824386 -8.55078125 19.98046875 C-11.8667278 19.55094199 -13.56237627 18.07825646 -15.8125 15.6875 C-17.40939041 12.49371918 -17.18598957 9.16228685 -16.8125 5.6875 C-15.56261855 2.81277265 -14.55781416 1.24648562 -12.0625 -0.625 C-7.72512545 -1.95030889 -4.11709119 -1.92130922 0 0 Z " fill="#000000" transform="translate(287.8125,272.3125)"/>
<path d="M0 0 C2.38527062 1.9082165 3.29939676 2.84348031 4.1875 5.75 C4.64216086 10.75126944 4.28011015 13.74106092 1.1875 17.75 C-2.83108595 20.4290573 -6.08891721 20.44610694 -10.8125 19.75 C-13.68279869 17.95606332 -15.30381638 16.76736724 -16.8125 13.75 C-17.36362923 9.15123316 -17.43003151 5.77212113 -15 1.75 C-10.68659423 -2.19368528 -5.23405943 -2.32624864 0 0 Z " fill="#000000" transform="translate(236.8125,272.25)"/>
<path d="M0 0 C3.0190434 1.75299294 5.41511201 3.83022401 7 7 C7.37712577 11.99691647 7.09290612 14.99067725 4 19 C-0.04081202 21.69387468 -3.25589306 21.65867214 -8 21 C-11.73004118 19.01593554 -12.75882115 17.53260329 -14.5 13.6875 C-15.12063564 9.11031213 -14.29065944 6.97047637 -12 3 C-8.79733519 -0.67713367 -4.60697355 -0.97268156 0 0 Z " fill="#000000" transform="translate(183,271)"/>
</svg>
