<?xml version="1.0" encoding="UTF-8"?>
<svg version="1.1" xmlns="http://www.w3.org/2000/svg" width="512" height="512">
<path d="M0 0 C3.95384675 2.83093325 7.94666123 5.59941668 11.9609375 8.34375 C18.45971179 12.79490948 24.93360542 17.28093847 31.3984375 21.78125 C32.36869873 22.45663818 33.33895996 23.13202637 34.33862305 23.82788086 C38.34428496 26.61681598 42.34937518 29.40657152 46.35449219 32.19628906 C56.28624039 39.11333046 66.21840744 46.02868848 76.20092773 52.87231445 C83.10648282 57.61180041 89.97490096 62.40454556 96.84765625 67.19140625 C102.33204167 71.00946585 107.82428126 74.81517379 113.3359375 78.59375 C121.68292595 84.31786411 129.98795257 90.10193977 138.29296875 95.88671875 C142.37069617 98.72700278 146.45161354 101.56261464 150.53515625 104.39453125 C151.54892334 105.09811768 152.56269043 105.8017041 153.60717773 106.52661133 C155.52400761 107.85681365 157.44143999 109.18614839 159.35961914 110.5144043 C180.30165423 125.05647713 180.30165423 125.05647713 182.3359375 130.09375 C183.04724553 135.56240849 183.28783829 141.05406356 180.7734375 146.09375 C177.94356211 149.57667356 175.57708626 151.69912082 171.3359375 153.09375 C166.18043671 153.57925394 161.0659228 153.47159536 155.8984375 153.34375 C154.48505129 153.3236583 153.07163757 153.30541223 151.65820312 153.2890625 C148.21687067 153.24526817 144.77658175 153.17638903 141.3359375 153.09375 C141.33870288 154.79611596 141.33870288 154.79611596 141.34152412 156.53287315 C141.38594064 184.15898937 141.41879732 211.78510095 141.43956184 239.41124535 C141.44987053 252.77108507 141.46392313 266.13089835 141.48681641 279.49072266 C141.50676269 291.1363316 141.5196569 302.78192345 141.52411449 314.427549 C141.52671975 320.59270572 141.5328349 326.75781353 141.54739761 332.92295456 C141.56100102 338.72917212 141.56515453 344.53532075 141.56215286 350.34155273 C141.56270179 352.4691569 141.56666273 354.59676344 141.57434845 356.72435379 C141.58435285 359.637395 141.58188638 362.55017869 141.57644653 365.46322632 C141.58518506 366.71521948 141.58518506 366.71521948 141.59410012 367.99250543 C141.52759245 381.24067651 137.57123075 393.59121431 128.296875 403.3515625 C117.18776368 413.2214104 103.59304923 415.72792201 89.16015625 415.484375 C87.86898392 415.47871521 86.57781158 415.47305542 85.24751282 415.46722412 C81.86238958 415.4521605 78.47798463 415.41305413 75.09313965 415.3684082 C71.62013458 415.3270312 68.14701014 415.30912388 64.67382812 415.2890625 C57.89424153 415.24653381 51.11512426 415.17852648 44.3359375 415.09375 C44.33354915 414.23106538 44.33116079 413.36838076 44.32870007 412.47955418 C44.26951868 391.47144582 44.19394841 370.46345189 44.10022259 349.45546818 C44.05529078 339.29608766 44.01587005 329.13674198 43.98950195 318.97729492 C43.96650073 310.1205025 43.93307891 301.2638206 43.88723594 292.40711588 C43.86333242 287.71920449 43.84458482 283.03140238 43.83832359 278.34343147 C43.83225976 273.92668097 43.81221308 269.51020996 43.78166199 265.09356308 C43.77290255 263.47674312 43.76915483 261.85988661 43.77092934 260.2430439 C43.95375722 245.25057665 43.95375722 245.25057665 36.94789124 232.43008995 C29.36646948 226.14494879 21.5870936 225.36650052 12.05859375 225.44677734 C10.76621796 225.43801575 9.47384216 225.42925415 8.14230347 225.42022705 C4.62556443 225.39760199 1.10956593 225.40619916 -2.4071846 225.42212248 C-6.10472717 225.43486959 -9.80221053 225.4230171 -13.49975586 225.41519165 C-19.70665758 225.4061205 -25.91326088 225.41801591 -32.12011719 225.44189453 C-39.27423109 225.46910127 -46.42763228 225.46028529 -53.58172894 225.4327625 C-59.74770254 225.40999964 -65.91346283 225.40690618 -72.07946491 225.41995585 C-75.75181556 225.4277112 -79.42383231 225.42890116 -83.09616089 225.41227341 C-87.19343586 225.39501408 -91.28950152 225.41900047 -95.38671875 225.44677734 C-96.5880545 225.43665619 -97.78939026 225.42653503 -99.02713013 225.41610718 C-106.55345865 225.5102813 -112.42334982 226.7081187 -118.6640625 231.09375 C-124.97803554 237.56827102 -126.9022823 244.32802089 -126.9425354 253.35142517 C-126.951224 254.39557716 -126.951224 254.39557716 -126.96008813 255.46082312 C-126.97698469 257.77463001 -126.97995561 260.08823619 -126.98291016 262.40209961 C-126.99221549 264.06814049 -127.00238507 265.73417674 -127.01335144 267.40020752 C-127.04059723 271.90996994 -127.05578476 276.41970121 -127.06877947 280.92952418 C-127.08443375 285.64743407 -127.11121665 290.36528059 -127.1368103 295.08314514 C-127.18355742 304.0112535 -127.22032122 312.93937383 -127.25348318 321.86754185 C-127.2917333 332.03441816 -127.3411359 342.20123076 -127.39146733 352.36805332 C-127.4947267 373.2765718 -127.58400659 394.18513064 -127.6640625 415.09375 C-135.13205711 415.1871403 -142.59998987 415.25786032 -150.06843853 415.30099869 C-153.53778145 415.32172122 -157.00671987 415.34975043 -160.47583008 415.39550781 C-164.48001602 415.44798186 -168.4837887 415.46682151 -172.48828125 415.484375 C-174.32346565 415.51534271 -174.32346565 415.51534271 -176.19572449 415.54693604 C-189.40464384 415.55031732 -201.91903045 412.07518734 -211.8828125 403.09375 C-221.96620022 392.55886731 -225.00376044 379.67430285 -224.90457153 365.46322632 C-224.90628038 364.54813345 -224.90798923 363.63304057 -224.90974987 362.69021761 C-224.91301896 359.65325956 -224.90208394 356.61652721 -224.89111328 353.57958984 C-224.89054861 351.39095057 -224.89086682 349.20231093 -224.89199829 347.01367188 C-224.89257061 341.09293181 -224.88083574 335.17227327 -224.86685038 329.2515521 C-224.85432298 323.05626562 -224.85317093 316.86097713 -224.85079956 310.66567993 C-224.8445907 298.94330982 -224.8281879 287.22097714 -224.80810058 275.49862349 C-224.78556179 262.14919462 -224.7747435 248.79976555 -224.76470971 235.45032191 C-224.74382117 207.99811055 -224.70865672 180.54593237 -224.6640625 153.09375 C-225.53619385 153.11469727 -226.4083252 153.13564453 -227.30688477 153.15722656 C-230.57034048 153.22576195 -233.83302174 153.27572177 -237.09692383 153.31347656 C-238.50427384 153.33348246 -239.91154188 153.36069662 -241.31860352 153.39550781 C-255.9059183 153.74713398 -255.9059183 153.74713398 -261.6640625 149.09375 C-265.85682002 143.93343306 -266.12647954 139.60632875 -266.1953125 133.05859375 C-264.99462213 126.35768205 -260.42797261 122.74353239 -255.1015625 119.03125 C-254.44736328 118.56356201 -253.79316406 118.09587402 -253.11914062 117.61401367 C-246.41413891 112.84840385 -239.60735085 108.22610621 -232.8046875 103.6015625 C-227.31537582 99.86501559 -221.86255143 96.07699222 -216.4140625 92.28125 C-215.45556396 91.61367676 -214.49706543 90.94610352 -213.50952148 90.25830078 C-211.55094741 88.89378341 -209.59253379 87.52903568 -207.63427734 86.1640625 C-183.06422751 69.03813594 -183.06422751 69.03813594 -171.79907227 61.31518555 C-165.90219388 57.26798414 -160.03294106 53.1814125 -154.1640625 49.09375 C-147.6766162 44.57525628 -141.18478693 40.06410396 -134.6640625 35.59375 C-128.29179136 31.22383774 -121.94354517 26.81999501 -115.6015625 22.40625 C-114.62936768 21.72981445 -113.65717285 21.05337891 -112.65551758 20.35644531 C-107.67071313 16.88683493 -102.68886509 13.41306354 -97.7109375 9.93359375 C-92.03932884 5.97146249 -86.35506317 2.02796351 -80.6640625 -1.90625 C-79.808125 -2.50050781 -78.9521875 -3.09476563 -78.0703125 -3.70703125 C-75.67128252 -5.36760982 -73.26323652 -7.01410641 -70.8515625 -8.65625 C-70.16537842 -9.13352539 -69.47919434 -9.61080078 -68.7722168 -10.10253906 C-43.6325173 -27.05643613 -22.05998672 -15.79889717 0 0 Z " fill="#0070BC" transform="translate(297.6640625,57.90625)"/>
<path d="M0 0 C1.63610733 -0.01279495 1.63610733 -0.01279495 3.30526733 -0.02584839 C4.50222229 -0.02494202 5.69917725 -0.02403564 6.93240356 -0.02310181 C8.19277435 -0.02981903 9.45314514 -0.03653625 10.75170898 -0.04345703 C14.21045381 -0.06113529 17.6690997 -0.06581319 21.12788534 -0.0670886 C24.01552664 -0.0689876 26.9031449 -0.07634519 29.79077733 -0.08343279 C36.60427399 -0.09972152 43.4177178 -0.10460133 50.23123169 -0.10317993 C57.25851169 -0.10197855 64.28548453 -0.1230782 71.3126868 -0.15466726 C77.34676046 -0.18082484 83.38073378 -0.19154744 89.41486371 -0.19026911 C93.01840389 -0.18975929 96.62167119 -0.19545309 100.22515488 -0.21662521 C104.24497191 -0.23959828 108.26410157 -0.23049001 112.28396606 -0.21841431 C113.47687256 -0.22965332 114.66977905 -0.24089233 115.89883423 -0.25247192 C123.93767962 -0.19096239 123.93767962 -0.19096239 127.95343018 2.11029053 C131.0975426 5.91169631 130.86138696 9.24140983 130.85783386 14.00611877 C130.8591155 15.03901888 130.8591155 15.03901888 130.86042303 16.09278566 C130.862073 18.40517562 130.85656434 20.7174934 130.85110474 23.02987671 C130.85082273 24.68547056 130.85098085 26.34106454 130.85154724 27.99665833 C130.85183471 32.49634808 130.84594613 36.9960113 130.83897328 41.49569488 C130.83273135 46.1962405 130.83213528 50.89678669 130.83094788 55.59733582 C130.82783705 64.50081597 130.81962699 73.40428387 130.80959839 82.30775863 C130.79634207 94.33738785 130.79093534 106.3670204 130.78509617 118.39665508 C130.77568694 137.35358774 130.75576636 156.31049456 130.73757935 175.26742554 C83.87757935 175.26742554 37.01757935 175.26742554 -11.26242065 175.26742554 C-11.38332976 133.33883561 -11.38332976 133.33883561 -11.40890503 115.79281616 C-11.4267183 103.66916098 -11.44767956 91.54556827 -11.48873901 79.42196655 C-11.51862579 70.59311206 -11.53799196 61.76430815 -11.54468614 52.93540448 C-11.54859962 48.25986958 -11.55780742 43.58447941 -11.57961082 38.90899086 C-11.59996455 34.50874211 -11.60625671 30.1086978 -11.6017437 25.70840645 C-11.6025694 24.09310038 -11.60854173 22.47778751 -11.62003708 20.86252213 C-11.63496411 18.65697271 -11.63137398 16.4521951 -11.6231842 14.24662781 C-11.62594958 13.012347 -11.62871496 11.7780662 -11.63156414 10.50638294 C-11.22564431 6.94474071 -10.41940672 5.10306886 -8.26242065 2.26742554 C-4.93216419 0.04725456 -3.88239543 0.01370603 0 0 Z " fill="#0071BC" transform="translate(196.26242065429688,297.7325744628906)"/>
</svg>
