<?xml version="1.0" encoding="UTF-8"?>
<svg version="1.1" xmlns="http://www.w3.org/2000/svg" width="512" height="512">
<path d="M0 0 C3.11511212 1.86379858 5.47366476 4.41451979 8 7 C9.04762471 8.02793506 10.09725336 9.05383016 11.1484375 10.078125 C15.54270352 14.39182004 19.90623101 18.67989623 23.88256836 23.38696289 C28.74671036 28.96432172 34.0193541 34.13069056 39.26751709 39.34268188 C41.16271893 41.22496176 43.05464053 43.11048618 44.94580078 44.99682617 C48.96104704 49.00072039 52.98022013 53.00065806 57 57 C61.66315461 61.63944554 66.32462555 66.28055741 70.98187256 70.92593384 C72.83367034 72.77131359 74.68848449 74.61362294 76.54345703 76.45581055 C85.86488486 85.73712718 85.86488486 85.73712718 89.48632812 89.98632812 C94.15881886 95.4656056 99.34719114 100.45691979 104.45271301 105.52787781 C106.38151763 107.44376469 108.30704603 109.36289273 110.23181152 111.28283691 C114.31838841 115.35805972 118.40889147 119.42932718 122.5 123.5 C127.24575898 128.2220532 131.98983664 132.94577069 136.72969055 137.67375183 C138.61472776 139.55236917 140.50278098 141.42791748 142.39099121 143.30334473 C147.47178239 148.36265549 152.44782982 153.41638262 157.10095215 158.87609863 C161.28471145 163.55522881 165.8149875 167.92084025 170.26751709 172.34268188 C172.16271893 174.22496176 174.05464053 176.11048618 175.94580078 177.99682617 C179.96104704 182.00072039 183.98022013 186.00065806 188 190 C192.66315461 194.63944554 197.32462555 199.28055741 201.98187256 203.92593384 C203.83367034 205.77131359 205.68848449 207.61362294 207.54345703 209.45581055 C212.7299422 214.62000826 217.86801985 219.76487033 222.58914185 225.3664856 C225.18068682 228.36701831 228.04058963 231.10620098 230.875 233.875 C237.82240204 240.66801533 237.82240204 240.66801533 238.375 244.8125 C238 248 238 248 236.16333008 250.66870117 C231.5374743 254.07784656 227.61314856 253.62942758 222.01171875 253.48828125 C220.95338333 253.48120651 219.89504791 253.47413177 218.80464172 253.46684265 C215.43153563 253.43890219 212.06010254 253.37616121 208.6875 253.3125 C206.39781047 253.28741682 204.10809486 253.26460369 201.81835938 253.24414062 C196.21167085 253.18907681 190.60595496 253.1054533 185 253 C185.00276538 254.18644796 185.00553076 255.37289593 185.00837994 256.59529686 C185.07340422 284.78205731 185.12284693 312.96881402 185.15319599 341.15563341 C185.15694795 344.62768152 185.16083093 348.09972947 185.16479492 351.57177734 C185.16558185 352.26297687 185.16636878 352.95417639 185.16717956 353.66632135 C185.18022061 364.84668112 185.20386725 376.02699445 185.23145839 387.2073267 C185.25954886 398.68604059 185.27595951 410.16472186 185.28226548 421.64346945 C185.2861741 428.08810774 185.29535128 434.53264079 185.31719017 440.97724533 C185.33758878 447.04613209 185.3438269 453.11487051 185.33932304 459.1837883 C185.34014673 461.4081503 185.34609212 463.63251738 185.35761642 465.85684967 C185.37261316 468.90135943 185.36892729 471.94531418 185.36076355 474.98983765 C185.36950207 475.86340924 185.3782406 476.73698083 185.38724393 477.63702428 C185.3157368 487.55007057 182.72556802 495.6315468 176 503 C167.96529507 510.85615593 159.95284129 512.59923676 149.02612305 512.51757812 C147.27814674 512.52809204 147.27814674 512.52809204 145.49485779 512.53881836 C141.66689806 512.5563359 137.83968517 512.54480075 134.01171875 512.53125 C131.34372546 512.53394578 128.67575444 512.53782304 126.00776672 512.54284668 C120.4288429 512.55010103 114.85013171 512.54058864 109.27124023 512.52148438 C102.82544118 512.49966616 96.38014729 512.50681123 89.93436021 512.52879 C84.38762138 512.5469438 78.84103451 512.54950412 73.29427558 512.53903532 C69.986533 512.53280699 66.6790797 512.53352369 63.37134361 512.54518127 C59.68951315 512.55531472 56.00866163 512.53989132 52.3269043 512.51757812 C51.23333618 512.52567505 50.13976807 512.53377197 49.01306152 512.54211426 C48.01087082 512.53083496 47.00868011 512.51955566 45.97612 512.50793457 C45.10657527 512.50642647 44.23703054 512.50491837 43.34113598 512.50336456 C40.19622638 511.82718169 39.00257786 510.4647924 37 508 C35.92353581 504.77060742 35.87684999 502.45496293 35.87974548 499.05854797 C35.87768349 497.19704102 35.87768349 497.19704102 35.87557983 495.29792786 C35.87911897 493.9203794 35.88275378 492.54283118 35.88647461 491.1652832 C35.88675664 489.71658327 35.88659843 488.2678832 35.8860321 486.81918335 C35.88574476 482.88352362 35.89163137 478.94789426 35.89860606 475.0122416 C35.90485003 470.90026773 35.90544423 466.78829319 35.90663147 462.67631531 C35.9097417 454.88843728 35.91795095 447.10057326 35.92798096 439.3127014 C35.94123968 428.7898394 35.94664449 418.26697358 35.95248318 407.74410534 C35.96189103 391.1627264 35.98181202 374.58137702 36 358 C3.66 358 -28.68 358 -62 358 C-61.96519531 368.54195313 -61.93039063 379.08390625 -61.89453125 389.9453125 C-61.8792057 396.6171897 -61.86463996 403.28905416 -61.85351562 409.9609375 C-61.83571035 420.55473178 -61.81477143 431.14845452 -61.77368164 441.7421875 C-61.74377127 449.45733375 -61.72442309 457.172422 -61.71773452 464.88762462 C-61.71382503 468.97242913 -61.70464268 473.0570677 -61.68280983 477.141819 C-61.66241876 480.98805494 -61.65617146 484.83405686 -61.66067696 488.68034172 C-61.65985292 490.09043462 -61.65390274 491.5005355 -61.64238358 492.91058159 C-61.62740032 494.8395913 -61.63284722 496.76872711 -61.63923645 498.69778442 C-61.63647107 499.77628222 -61.63370569 500.85478001 -61.63085651 501.96595955 C-62.06398705 505.52591822 -63.16097952 507.93742439 -65 511 C-67.43681081 512.2184054 -69.0112197 512.13381 -71.73561096 512.14717102 C-72.73505234 512.15432632 -73.73449371 512.16148163 -74.76422119 512.16885376 C-76.41535919 512.17288712 -76.41535919 512.17288712 -78.09985352 512.17700195 C-79.83424934 512.18685875 -79.83424934 512.18685875 -81.60368347 512.19691467 C-85.445425 512.21668813 -89.28712732 512.228321 -93.12890625 512.23828125 C-94.43974623 512.24235678 -95.7505862 512.2464323 -97.10114861 512.25063133 C-103.32631597 512.26969077 -109.55147147 512.28391636 -115.77666241 512.2922433 C-122.95056634 512.30199841 -130.12416029 512.32826908 -137.2979551 512.36874419 C-142.84883583 512.39898137 -148.39962815 512.41371961 -153.9505896 512.41702431 C-157.26256821 512.41936755 -160.57414178 512.43022511 -163.88604927 512.45348549 C-167.58907708 512.47787031 -171.291301 512.4769121 -174.99438477 512.4699707 C-176.08097382 512.48278076 -177.16756287 512.49559082 -178.28707886 512.50878906 C-188.0518155 512.44226054 -195.0754357 509.5740958 -202.2109375 502.921875 C-209.56057407 495.02663222 -211.30938917 486.79066242 -211.24050903 476.31263733 C-211.24221788 475.35518866 -211.24392673 474.39773998 -211.24568737 473.41127771 C-211.24897347 470.21299172 -211.23799296 467.01491696 -211.22705078 463.81665039 C-211.22648648 461.52008062 -211.2268036 459.22351048 -211.22793579 456.92694092 C-211.22850956 450.6981836 -211.21675128 444.46950332 -211.20278788 438.2407639 C-211.19028456 431.72915236 -211.18911033 425.21753905 -211.18673706 418.70591736 C-211.18122734 407.77845893 -211.16873528 396.85102895 -211.15087891 385.92358398 C-211.13250931 374.67033021 -211.11835809 363.41708411 -211.10986328 352.16381836 C-211.10907511 351.122622 -211.10907511 351.122622 -211.10827102 350.06039137 C-211.10566086 346.57799726 -211.10313347 343.09560309 -211.10064721 339.61320889 C-211.0799277 310.74212058 -211.04456443 281.87106097 -211 253 C-211.60499329 253.01110306 -212.20998657 253.02220612 -212.83331299 253.03364563 C-219.12716923 253.14421896 -225.42074987 253.21965871 -231.71533203 253.2746582 C-234.06472988 253.29981062 -236.41404941 253.33393663 -238.76318359 253.37719727 C-242.13919383 253.43781426 -245.51417011 253.46620295 -248.890625 253.48828125 C-250.46738007 253.52699089 -250.46738007 253.52699089 -252.07598877 253.56648254 C-259.35899867 253.5692871 -259.35899867 253.5692871 -262.65136719 250.64526367 C-264.39183335 247.23144201 -264.81667458 245.78640033 -264 242 C-261.96193913 239.0383466 -259.52772286 236.54690861 -257 234 C-256.35160156 233.32582031 -255.70320312 232.65164062 -255.03515625 231.95703125 C-251.21168268 228.04270286 -247.21476638 224.41151162 -243.06640625 220.84765625 C-240.78850522 218.81089408 -238.64581412 216.67525925 -236.5 214.5 C-233.77170593 211.73439592 -231.01483166 209.08712969 -228.0625 206.5625 C-224.8896408 203.84380752 -221.93661618 200.97248325 -219 198 C-215.45767801 194.41441301 -211.82444339 191.05108338 -207.99609375 187.77734375 C-204.93333273 185.05022777 -202.09776507 182.10595363 -199.21875 179.1875 C-196.59228878 176.59803119 -193.83023542 174.21163036 -191.03125 171.8125 C-188.76361428 169.7890712 -186.6342305 167.66346653 -184.5 165.5 C-181.13885518 162.0928121 -177.66298797 158.92541826 -174.03125 155.8125 C-171.76361428 153.7890712 -169.6342305 151.66346653 -167.5 149.5 C-164.13885518 146.0928121 -160.66298797 142.92541826 -157.03125 139.8125 C-154.76361428 137.7890712 -152.6342305 135.66346653 -150.5 133.5 C-147.13885518 130.0928121 -143.66298797 126.92541826 -140.03125 123.8125 C-137.76361428 121.7890712 -135.6342305 119.66346653 -133.5 117.5 C-130.77170593 114.73439592 -128.01483166 112.08712969 -125.0625 109.5625 C-121.8896408 106.84380752 -118.93661618 103.97248325 -116 101 C-112.45767801 97.41441301 -108.82444339 94.05108338 -104.99609375 90.77734375 C-101.93333273 88.05022777 -99.09776507 85.10595363 -96.21875 82.1875 C-93.59228878 79.59803119 -90.83023542 77.21163036 -88.03125 74.8125 C-85.76361428 72.7890712 -83.6342305 70.66346653 -81.5 68.5 C-78.13885518 65.0928121 -74.66298797 61.92541826 -71.03125 58.8125 C-68.76361428 56.7890712 -66.6342305 54.66346653 -64.5 52.5 C-61.13885518 49.0928121 -57.66298797 45.92541826 -54.03125 42.8125 C-51.76361428 40.7890712 -49.6342305 38.66346653 -47.5 36.5 C-44.13885518 33.0928121 -40.66298797 29.92541826 -37.03125 26.8125 C-33.96025683 24.07222917 -31.11213124 21.12053098 -28.22265625 18.19140625 C-25.5807485 15.58664308 -22.80583885 13.18054747 -19.98828125 10.76953125 C-17.07786647 8.17931928 -14.3745491 5.39843912 -11.6640625 2.6015625 C-8.29167595 -0.64416164 -4.45963335 -0.91418509 0 0 Z M-6.36352539 21.26586914 C-6.93578857 21.84973389 -7.50805176 22.43359863 -8.09765625 23.03515625 C-8.73034424 23.67622314 -9.36303223 24.31729004 -10.01489258 24.9777832 C-10.69060303 25.66573975 -11.36631348 26.35369629 -12.0625 27.0625 C-16.61488433 31.66188771 -21.1647293 36.15635509 -26.11328125 40.33203125 C-29.4196423 43.25504609 -32.45823324 46.45161624 -35.55859375 49.58984375 C-38.27202727 52.26854532 -41.10777023 54.74608118 -44.00390625 57.22265625 C-47.06666727 59.94977223 -49.90223493 62.89404637 -52.78125 65.8125 C-55.40771122 68.40196881 -58.16976458 70.78836964 -60.96875 73.1875 C-63.23638572 75.2109288 -65.3657695 77.33653347 -67.5 79.5 C-70.86114482 82.9071879 -74.33701203 86.07458174 -77.96875 89.1875 C-80.23638572 91.2109288 -82.3657695 93.33653347 -84.5 95.5 C-87.86114482 98.9071879 -91.33701203 102.07458174 -94.96875 105.1875 C-97.23638572 107.2109288 -99.3657695 109.33653347 -101.5 111.5 C-104.86114482 114.9071879 -108.33701203 118.07458174 -111.96875 121.1875 C-114.23638572 123.2109288 -116.3657695 125.33653347 -118.5 127.5 C-121.86114482 130.9071879 -125.33701203 134.07458174 -128.96875 137.1875 C-131.23638572 139.2109288 -133.3657695 141.33653347 -135.5 143.5 C-138.22829407 146.26560408 -140.98516834 148.91287031 -143.9375 151.4375 C-147.1103592 154.15619248 -150.06338382 157.02751675 -153 160 C-156.54232199 163.58558699 -160.17555661 166.94891662 -164.00390625 170.22265625 C-167.06666727 172.94977223 -169.90223493 175.89404637 -172.78125 178.8125 C-175.40771122 181.40196881 -178.16976458 183.78836964 -180.96875 186.1875 C-183.23638572 188.2109288 -185.3657695 190.33653347 -187.5 192.5 C-190.86114482 195.9071879 -194.33701203 199.07458174 -197.96875 202.1875 C-200.23638572 204.2109288 -202.3657695 206.33653347 -204.5 208.5 C-207.85985649 211.90588192 -211.33397356 215.07245051 -214.96484375 218.18359375 C-218.04991811 220.93706703 -220.9122442 223.90208396 -223.8125 226.84765625 C-225.8290826 228.83182949 -227.89793131 230.68019124 -230.0625 232.5 C-231.031875 233.325 -232.00125 234.15 -233 235 C-233 235.33 -233 235.66 -233 236 C-232.05680908 236.01458252 -231.11361816 236.02916504 -230.1418457 236.04418945 C-226.62841339 236.10539606 -223.11574554 236.17957508 -219.6027832 236.26245117 C-218.08498379 236.29561916 -216.56706344 236.32367632 -215.04907227 236.34643555 C-212.86161981 236.38013278 -210.67526736 236.43245204 -208.48828125 236.48828125 C-207.17384033 236.51446533 -205.85939941 236.54064941 -204.50512695 236.56762695 C-200.84624257 237.01896667 -198.91189784 237.78527411 -196 240 C-194.86644105 242.26711789 -194.87419479 243.48976396 -194.87250805 246.00594616 C-194.8695004 246.84859309 -194.86649275 247.69124003 -194.86339396 248.55942172 C-194.86601952 249.95593517 -194.86601952 249.95593517 -194.86869812 251.38066101 C-194.86658241 252.36565057 -194.86446669 253.35064013 -194.86228687 254.36547786 C-194.85626468 257.6872664 -194.8572886 261.00901719 -194.8581543 264.33081055 C-194.85512425 266.70395472 -194.85160322 269.07709831 -194.84762573 271.45024109 C-194.83972409 276.57180026 -194.83458705 281.69335242 -194.83133507 286.81491661 C-194.8258414 294.91161066 -194.80894629 303.00826251 -194.78999329 311.10493469 C-194.78363617 313.87442677 -194.77732777 316.64391896 -194.77101612 319.41341114 C-194.76943236 320.10559619 -194.7678486 320.79778124 -194.76621684 321.51094159 C-194.74827273 329.39392873 -194.73205068 337.27691886 -194.71704102 345.15991211 C-194.71566514 345.88067371 -194.71428927 346.60143531 -194.71287171 347.34403817 C-194.69095331 359.0177268 -194.68018861 370.69140461 -194.67267027 382.36511018 C-194.66459637 394.34903746 -194.64129588 406.33287183 -194.6047166 418.31674606 C-194.584674 425.04573802 -194.57201228 431.77458301 -194.57755089 438.5036068 C-194.5821893 444.83442289 -194.56843552 451.1649299 -194.54053879 457.49568367 C-194.53361308 459.81965495 -194.5335152 462.1436581 -194.54073906 464.46762848 C-194.54960495 467.64026169 -194.53396905 470.81187078 -194.51225281 473.98442078 C-194.52069534 474.90427613 -194.52913788 475.82413149 -194.53783625 476.77186126 C-194.46292189 482.69040917 -193.42531499 486.13787898 -190 491 C-184.91377088 495.70375346 -180.24894624 495.5524776 -173.68017578 495.45410156 C-172.65517471 495.45468567 -171.63017365 495.45526978 -170.57411194 495.45587158 C-167.19749695 495.45309236 -163.82177264 495.42200683 -160.4453125 495.390625 C-158.09976687 495.38316207 -155.75421499 495.37746938 -153.40866089 495.37347412 C-147.24359844 495.35822209 -141.07891461 495.31894336 -134.91400146 495.2746582 C-128.61980307 495.23369659 -122.32554334 495.21546116 -116.03125 495.1953125 C-103.68733391 495.1524492 -91.34369847 495.08420259 -79 495 C-78.99641747 493.8445583 -78.99641747 493.8445583 -78.99276257 492.66577435 C-78.93367179 473.93799912 -78.85815992 455.21035636 -78.76428509 436.48272228 C-78.71928579 427.42623748 -78.67988075 418.36979237 -78.65356445 409.31323242 C-78.63061776 401.42114974 -78.59725725 393.52919223 -78.55129844 385.63720876 C-78.52732111 381.45697969 -78.50862199 377.27687492 -78.50238609 373.0965786 C-78.4963555 369.16408697 -78.4764298 365.23191358 -78.44572449 361.29953957 C-78.43691158 359.85435823 -78.43322838 358.40913536 -78.43499184 356.96392822 C-78.43663669 354.99436362 -78.41822874 353.02481237 -78.39872742 351.05534363 C-78.39411845 349.95195743 -78.38950949 348.84857122 -78.38476086 347.71174908 C-78 345 -78 345 -76.79058552 343.14535046 C-74.39709242 341.61434935 -72.7882903 341.62258325 -69.9519043 341.61904907 C-68.90876068 341.6105896 -67.86561707 341.60213013 -66.79086304 341.59341431 C-65.07487411 341.60252335 -65.07487411 341.60252335 -63.32421875 341.61181641 C-62.1191568 341.60655945 -60.91409485 341.60130249 -59.67251587 341.59588623 C-56.36661455 341.58493388 -53.06127542 341.58751609 -49.75540543 341.59702349 C-46.2974598 341.60461361 -42.83953836 341.59757628 -39.3815918 341.59286499 C-33.57433758 341.58740553 -27.76719779 341.59460397 -21.95996094 341.60888672 C-15.24396056 341.6252137 -8.5282334 341.61992532 -1.81223965 341.6034075 C3.9517504 341.58979798 9.71565816 341.58787033 15.47965908 341.59572351 C18.92322201 341.60040301 22.36665648 341.60101741 25.81021118 341.59111404 C29.64832193 341.5808472 33.48612611 341.59507312 37.32421875 341.61181641 C38.46821136 341.60574371 39.61220398 341.59967102 40.79086304 341.59341431 C41.83400665 341.60187378 42.87715027 341.61033325 43.9519043 341.61904907 C45.31353951 341.62074569 45.31353951 341.62074569 46.7026825 341.62247658 C49 342 49 342 50.79058552 343.14535046 C52.534768 345.82007223 52.38544055 347.87446786 52.39872742 351.05534363 C52.41753464 352.95471428 52.41753464 352.95471428 52.4367218 354.89245605 C52.43554769 356.2983401 52.43408852 357.70422393 52.43237305 359.11010742 C52.4413877 360.58837201 52.45171418 362.06662909 52.46325684 363.5448761 C52.49088814 367.5611189 52.50011961 371.57722012 52.50611091 375.59354568 C52.51547869 379.78966009 52.54168072 383.98566807 52.56611633 388.18171692 C52.60982907 396.12893902 52.63834666 404.07614053 52.66143972 412.02344638 C52.68846585 421.07056328 52.7323789 430.11757336 52.77772844 439.16461408 C52.87064307 457.77635305 52.94229253 476.38812026 53 495 C66.56931278 495.11590156 80.13850761 495.20471989 93.70821476 495.25906086 C100.00934915 495.2851432 106.31014464 495.32051761 112.61108398 495.37719727 C118.69300602 495.43156377 124.77460228 495.46143079 130.85674858 495.47438622 C133.17599045 495.48361761 135.4952147 495.50164449 137.8143177 495.52865028 C141.06548579 495.56500079 144.31531145 495.56994263 147.56665039 495.56762695 C148.523311 495.58560333 149.47997162 495.60357971 150.46562195 495.62210083 C155.75140953 495.58142167 159.23667228 494.8807783 163.5425787 491.75738811 C168.29170317 486.03079767 168.43183961 480.0976199 168.37854004 472.9911499 C168.38533523 471.50302398 168.38533523 471.50302398 168.3922677 469.98483491 C168.40387126 466.66911747 168.39425289 463.35380501 168.38476562 460.03808594 C168.38887152 457.6577122 168.3943325 455.27734047 168.40104675 452.89697266 C168.41429296 447.10896012 168.41417451 441.32105599 168.40884912 435.53303358 C168.4037109 428.79284197 168.41801314 422.05273394 168.43419749 415.31256488 C168.46282182 403.28943684 168.48035431 391.26632255 168.48876953 379.24316406 C168.4895303 378.16468906 168.4895303 378.16468906 168.49030644 377.06442669 C168.4943397 371.22860758 168.4978345 365.39278816 168.50130367 359.55696869 C168.50436186 354.4497628 168.50763386 349.3425571 168.51123047 344.23535156 C168.51173308 343.51603391 168.5122357 342.79671625 168.51275355 342.05560109 C168.52149043 330.07155709 168.541909 318.08756045 168.57071257 306.10354829 C168.58636412 299.3758866 168.59548724 292.64832668 168.58930969 285.92064667 C168.5836826 279.60050922 168.59126328 273.28053202 168.60915565 266.9604187 C168.61317355 264.63636839 168.61200754 262.31230271 168.60538292 259.98825836 C168.59705742 256.82560856 168.60692718 253.66353044 168.62145996 250.50091553 C168.61111906 249.10877134 168.61111906 249.10877134 168.60056925 247.68850303 C168.61197891 246.42154605 168.61197891 246.42154605 168.62361908 245.12899399 C168.62402766 244.03368665 168.62402766 244.03368665 168.62444448 242.9162519 C169.11430392 240.41677037 170.01576483 239.55549792 172 238 C175.54004646 236.81998451 178.8227256 236.77087654 182.51171875 236.68359375 C183.60405571 236.6524221 183.60405571 236.6524221 184.71846008 236.62062073 C187.04137875 236.55531254 189.36440906 236.49632763 191.6875 236.4375 C193.26368335 236.39429695 194.83985548 236.35068208 196.41601562 236.30664062 C200.27722975 236.1996504 204.13855603 236.09833039 208 236 C203.98646856 231.17986337 199.78208662 226.6558492 195.31640625 222.25390625 C194.69781235 221.63909897 194.07921844 221.02429169 193.44187927 220.39085388 C190.82795177 217.79307814 188.20805816 215.20135106 185.58862305 212.60913086 C183.66242362 210.70118697 181.73936667 208.79011376 179.81640625 206.87890625 C178.94732384 206.02227135 178.94732384 206.02227135 178.0606842 205.14833069 C175.21600733 202.3204123 172.49622578 199.44757892 169.89428711 196.39428711 C165.12066931 190.87682959 159.90619186 185.79536856 154.73248291 180.65731812 C152.83728107 178.77503824 150.94535947 176.88951382 149.05419922 175.00317383 C145.03895296 170.99927961 141.01977987 166.99934194 137 163 C132.33684539 158.36055446 127.67537445 153.71944259 123.01812744 149.07406616 C121.16632966 147.22868641 119.31151551 145.38637706 117.45654297 143.54418945 C108.13511514 134.26287282 108.13511514 134.26287282 104.51367188 130.01367188 C99.84118114 124.5343944 94.65280886 119.54308021 89.54728699 114.47212219 C87.61848237 112.55623531 85.69295397 110.63710727 83.76818848 108.71716309 C79.68161159 104.64194028 75.59110853 100.57067282 71.5 96.5 C66.75424102 91.7779468 62.01016336 87.05422931 57.27030945 82.32624817 C55.38527224 80.44763083 53.49721902 78.57208252 51.60900879 76.69665527 C46.45088149 71.56037321 41.38077815 66.43119156 36.6572876 60.88659668 C33.22697034 56.98164672 29.4987076 53.35674565 25.8203125 49.6875 C24.96694305 48.83317383 24.11357361 47.97884766 23.23434448 47.09863281 C21.44554361 45.30915572 19.65549647 43.52092363 17.86425781 41.73388672 C15.10885719 38.98388884 12.35889303 36.22853437 9.609375 33.47265625 C7.86750847 31.73144969 6.1253322 29.9905529 4.3828125 28.25 C3.55685577 27.42201904 2.73089905 26.59403809 1.87991333 25.7409668 C1.12177338 24.985979 0.36363342 24.23099121 -0.41748047 23.453125 C-1.08697723 22.78442383 -1.756474 22.11572266 -2.44625854 21.42675781 C-4.42079578 19.53934338 -4.42079578 19.53934338 -6.36352539 21.26586914 Z " fill="#000000" transform="translate(269,0)"/>
</svg>
