<?xml version="1.0" encoding="UTF-8"?>
<svg version="1.1" xmlns="http://www.w3.org/2000/svg" width="512" height="512">
<path d="M0 0 C1.01790619 0.00215515 2.03581238 0.0043103 3.08456421 0.00653076 C17.69363523 0.05620146 32.02575853 0.30709809 46.375 3.3125 C47.34985352 3.51117676 48.32470703 3.70985352 49.32910156 3.91455078 C88.38660539 12.08468046 124.82400319 27.71035417 156.375 52.3125 C157.25929688 52.98539063 158.14359375 53.65828125 159.0546875 54.3515625 C174.64487101 66.4551235 189.25704477 80.75418497 201.375 96.3125 C202.52162109 97.71628906 202.52162109 97.71628906 203.69140625 99.1484375 C238.32002637 142.39252491 256.81365997 197.89189907 256.69067383 253.03979492 C256.6875221 255.97938487 256.71104926 258.9179558 256.73632812 261.85742188 C256.78098737 275.23056192 255.57551542 288.12666711 253.375 301.3125 C253.09281616 303.01805054 253.09281616 303.01805054 252.80493164 304.75805664 C245.77946967 343.86954746 228.79665906 381.05202178 204.375 412.3125 C203.61574219 413.28445313 202.85648437 414.25640625 202.07421875 415.2578125 C189.73986402 430.63741644 175.93895499 445.19015196 160.375 457.3125 C159.43914062 458.07691406 158.50328125 458.84132813 157.5390625 459.62890625 C125.58628299 485.2157721 86.41988322 501.72551276 46.375 509.3125 C45.56562988 509.47621094 44.75625977 509.63992188 43.92236328 509.80859375 C13.88110013 515.67977137 -20.7615176 514.58512909 -50.625 508.3125 C-52.14794678 507.99901611 -52.14794678 507.99901611 -53.70166016 507.67919922 C-90.84546555 499.78695344 -125.70945445 483.68345578 -155.625 460.3125 C-156.59695312 459.55324219 -157.56890625 458.79398437 -158.5703125 458.01171875 C-173.94991644 445.67736402 -188.50265196 431.87645499 -200.625 416.3125 C-201.77162109 414.90871094 -201.77162109 414.90871094 -202.94140625 413.4765625 C-228.5282721 381.52378299 -245.03801276 342.35738322 -252.625 302.3125 C-252.78871094 301.50312988 -252.95242187 300.69375977 -253.12109375 299.85986328 C-258.59069558 271.87335724 -258.46977511 238.21828161 -252.625 210.3125 C-252.42632324 209.33764648 -252.22764648 208.36279297 -252.02294922 207.35839844 C-241.93598313 159.13741149 -219.89911449 114.53770064 -185.40722656 79.14160156 C-183.63301167 77.32072238 -181.87518486 75.48496071 -180.1171875 73.6484375 C-173.01562574 66.30860161 -165.60158994 59.73928631 -157.40917969 53.64355469 C-155.59628085 52.2910746 -153.80174757 50.91656557 -152.0078125 49.5390625 C-143.60124472 43.15234877 -134.85975388 37.61076633 -125.65234375 32.45166016 C-123.78933792 31.40484113 -121.94116361 30.33571119 -120.09375 29.26171875 C-83.4933446 8.69459905 -41.63834482 -0.15855121 0 0 Z M-150.625 65.3125 C-151.43300049 65.94478516 -151.43300049 65.94478516 -152.25732422 66.58984375 C-167.5635047 78.65363851 -182.01868561 92.88272924 -193.44677734 108.68994141 C-194.63516421 110.32649738 -195.85517469 111.93511288 -197.08203125 113.54296875 C-218.86461257 142.52495047 -232.48361914 176.97456704 -239.625 212.3125 C-239.80289063 213.14555664 -239.98078125 213.97861328 -240.1640625 214.83691406 C-246.05335839 243.43038043 -244.83837137 276.90311251 -238.625 305.3125 C-238.41069336 306.29863281 -238.19638672 307.28476562 -237.97558594 308.30078125 C-229.95737038 343.92173303 -214.52106526 379.40870891 -190.625 407.3125 C-190.295 407.3125 -189.965 407.3125 -189.625 407.3125 C-189.61098145 406.45422607 -189.61098145 406.45422607 -189.59667969 405.57861328 C-188.93192773 372.93407854 -179.74741268 344.22895535 -155.62109375 320.97265625 C-133.55743686 300.97129675 -106.89866422 293.99306914 -77.70800781 294.0378418 C-75.8208903 294.03348689 -73.93377455 294.02830117 -72.04666138 294.02235413 C-66.95139871 294.00903517 -61.85621054 294.00837761 -56.76093388 294.01091743 C-52.49203998 294.01199219 -48.22316084 294.00709079 -43.95427012 294.002312 C-33.87379891 293.99124091 -23.79336497 293.99076559 -13.71289062 293.99682617 C-3.3496343 294.00286147 7.0134861 293.99056066 17.37671924 293.9692561 C26.30623316 293.95158099 35.23570405 293.94564812 44.1652348 293.94889385 C49.48422525 293.95069778 54.80311876 293.94816026 60.1220932 293.93417931 C65.12910569 293.92150935 70.13590799 293.92363084 75.14291763 293.93659019 C76.96807301 293.93893588 78.79324361 293.93629448 80.6183815 293.92796707 C111.44817994 293.79757633 138.08124926 303.67018484 160.5625 325.0625 C173.83871339 338.89816485 182.7114039 355.73214095 187.375 374.3125 C187.69404297 375.53646484 187.69404297 375.53646484 188.01953125 376.78515625 C190.21077484 386.73245628 190.04479621 397.16880069 190.375 407.3125 C219.305424 379.60880776 235.31298888 332.95546518 241.375 294.3125 C241.64884521 292.57915405 241.64884521 292.57915405 241.92822266 290.81079102 C243.52855387 279.54078263 243.77416633 268.3717251 243.75 257 C243.74945618 256.03405914 243.74891235 255.06811829 243.74835205 254.07290649 C243.70732791 238.17572306 242.78257363 222.8929432 239.375 207.3125 C239.16069336 206.32636719 238.94638672 205.34023437 238.72558594 204.32421875 C230.5404275 167.96162263 214.50192316 134.48109552 191.375 105.3125 C190.95347656 104.77383301 190.53195312 104.23516602 190.09765625 103.68017578 C178.03386149 88.3739953 163.80477076 73.91881439 147.99755859 62.49072266 C146.36100262 61.30233579 144.75238712 60.08232531 143.14453125 58.85546875 C65.02496933 0.14155034 -45.96611725 -2.06658565 -150.625 65.3125 Z M-149.625 333.3125 C-150.22699219 333.83972656 -150.82898438 334.36695313 -151.44921875 334.91015625 C-161.3226529 343.90902048 -168.34845928 356.84371096 -172.625 369.3125 C-173.0375 370.50488281 -173.45 371.69726562 -173.875 372.92578125 C-178.31962003 387.70229091 -181.93696759 412.11666531 -175.11474609 426.49560547 C-170.67307211 432.72844138 -164.826938 436.96075044 -158.625 441.3125 C-157.13031034 442.49883788 -155.64547084 443.69771654 -154.171875 444.91015625 C-150.10415453 448.21512089 -145.91087585 451.29766522 -141.625 454.3125 C-140.9846582 454.76560547 -140.34431641 455.21871094 -139.68457031 455.68554688 C-130.37324204 462.21930736 -120.68615651 468.01246832 -110.625 473.3125 C-109.94083008 473.67698242 -109.25666016 474.04146484 -108.55175781 474.41699219 C-86.52905349 485.98478263 -62.09505513 493.24204596 -37.625 497.3125 C-36.90280273 497.43560547 -36.18060547 497.55871094 -35.43652344 497.68554688 C25.00024568 507.62599844 90.62443519 491.49588003 140.26367188 455.96044922 C144.05254048 453.18104643 147.72089328 450.26730328 151.375 447.3125 C152.26960938 446.6215625 153.16421875 445.930625 154.0859375 445.21875 C155.89114051 443.79999808 157.65800983 442.33133215 159.38671875 440.8203125 C161.69611779 438.8822286 163.88796273 437.31392083 166.39453125 435.6796875 C172.5444529 431.23477268 176.67574192 427.07947097 178.1015625 419.3984375 C180.82718526 392.55533183 175.91153068 365.06950478 159.375 343.3125 C156.49661199 339.85347166 153.48119023 336.56687545 150.375 333.3125 C149.84777344 332.71050781 149.32054687 332.10851562 148.77734375 331.48828125 C134.65782222 315.99653 112.37760045 307.20992126 91.72674561 305.94236755 C86.81528097 305.75261824 81.90640623 305.77042503 76.9921875 305.79492188 C75.12713072 305.78948432 73.26207824 305.78235261 71.39703369 305.77368164 C66.38867656 305.75563934 61.3806536 305.76243583 56.37229156 305.77519798 C51.09567966 305.78542577 45.81909367 305.77590547 40.54248047 305.76965332 C31.68647195 305.76240509 22.83059748 305.77189002 13.97460938 305.79101562 C3.78048647 305.81277883 -6.41331625 305.80572545 -16.60743141 305.78371 C-25.40803044 305.76547505 -34.20853389 305.76303702 -43.00914574 305.77346468 C-48.24428926 305.77965535 -53.479283 305.78065873 -58.7144165 305.76731873 C-63.63951628 305.75564213 -68.56420899 305.76399817 -73.48926544 305.78689575 C-75.2813271 305.79212049 -77.07342388 305.79077825 -78.86547089 305.78184509 C-106.68033265 305.6561265 -129.24053971 313.85622879 -149.625 333.3125 Z " fill="#000000" transform="translate(255.625,-0.3125)"/>
<path d="M0 0 C0.71188477 0.24669434 1.42376953 0.49338867 2.15722656 0.74755859 C17.4646796 6.21834425 29.49117131 14.65101615 41 26 C42.2065625 27.18722656 42.2065625 27.18722656 43.4375 28.3984375 C61.6849753 47.46958356 68.55451025 72.37859052 68.41967773 98.22949219 C67.86261339 122.99825651 58.28936846 144.44594548 42 163 C41.32324219 163.7734375 40.64648438 164.546875 39.94921875 165.34375 C24.38592241 181.99149449 0.72191108 192.59105415 -21.89111328 194.20654297 C-24.84731539 194.30241711 -27.79231581 194.32904615 -30.75 194.3125 C-31.79913574 194.30758545 -32.84827148 194.3026709 -33.92919922 194.29760742 C-60.34658668 193.90116364 -83.68359456 182.71854328 -102.6875 164.75 C-123.02831792 143.4405717 -130.60243414 117.68200253 -130.27734375 88.71484375 C-130.03431633 80.11457505 -128.61123337 72.18186456 -126 64 C-125.79101074 63.34499512 -125.58202148 62.68999023 -125.36669922 62.01513672 C-120.23408401 46.60960178 -111.35456292 34.37076059 -100 23 C-99.20980469 22.19820312 -98.41960937 21.39640625 -97.60546875 20.5703125 C-86.61965394 10.03996265 -73.39712537 3.51438475 -59 -1 C-57.96488281 -1.3403125 -56.92976563 -1.680625 -55.86328125 -2.03125 C-38.39982168 -6.76413239 -17.07466698 -5.97232402 0 0 Z M-97.59960938 39.35400391 C-105.30139316 48.40655382 -110.23386646 58.81023784 -114 70 C-114.3403125 70.99902344 -114.680625 71.99804688 -115.03125 73.02734375 C-121.1784628 94.68488516 -116.71930913 118.39179214 -106.44140625 137.96875 C-93.75748781 159.13903114 -73.32747075 173.70150752 -49.5625 179.8125 C-30.01859864 183.59940294 -9.62078619 181.44537638 8 172 C8.96164062 171.50886719 9.92328125 171.01773438 10.9140625 170.51171875 C19.09014209 166.08564983 25.47203841 160.51844561 32 154 C32.65742188 153.35417969 33.31484375 152.70835937 33.9921875 152.04296875 C50.40333186 134.68648197 55.69984585 112.21587568 55.3125 89 C54.4467778 66.02950425 42.92749066 45.54809107 26.4609375 30.015625 C17.90470012 22.3291017 7.88771756 16.67426697 -3 13 C-4.14210938 12.608125 -5.28421875 12.21625 -6.4609375 11.8125 C-40.34096087 1.75327657 -74.36388878 13.62207638 -97.59960938 39.35400391 Z " fill="#000000" transform="translate(287,87)"/>
</svg>
