<?xml version="1.0" encoding="UTF-8"?>
<svg version="1.1" xmlns="http://www.w3.org/2000/svg" width="512" height="512">
<path d="M0 0 C1.01790619 0.00215515 2.03581238 0.0043103 3.08456421 0.00653076 C17.69363523 0.05620146 32.02575853 0.30709809 46.375 3.3125 C47.34985352 3.51117676 48.32470703 3.70985352 49.32910156 3.91455078 C97.7109774 14.03517194 141.69928269 35.9516877 177.375 70.3125 C178.3640332 71.26068604 178.3640332 71.26068604 179.37304688 72.22802734 C188.86130305 81.37247479 197.6012044 90.66984009 205.375 101.3125 C206.23306152 102.46355017 207.09113451 103.61459177 207.94921875 104.765625 C213.98736829 112.95680614 219.34595521 121.47054105 224.375 130.3125 C224.73948242 130.94430176 225.10396484 131.57610352 225.47949219 132.22705078 C247.08534998 169.97532572 256.85198095 212.74189997 256.6875 255.9375 C256.68534485 256.95540619 256.6831897 257.97331238 256.68096924 259.02206421 C256.63129854 273.63113523 256.38040191 287.96325853 253.375 302.3125 C253.07698486 303.77478027 253.07698486 303.77478027 252.77294922 305.26660156 C242.65232806 353.6484774 220.7358123 397.63678269 186.375 433.3125 C185.74287598 433.97185547 185.11075195 434.63121094 184.45947266 435.31054688 C175.31502521 444.79880305 166.01765991 453.5387044 155.375 461.3125 C154.22394983 462.17056152 153.07290823 463.02863451 151.921875 463.88671875 C143.73224019 469.92427396 135.22961724 475.30707302 126.375 480.3125 C125.66778809 480.7146875 124.96057617 481.116875 124.23193359 481.53125 C101.09654164 494.5566741 75.92537591 503.30551461 49.9375 508.625 C49.21860596 508.77235596 48.49971191 508.91971191 47.7590332 509.0715332 C33.08339502 511.86090125 18.55831162 512.66142619 3.64770508 512.62817383 C0.70811513 512.6250221 -2.2304558 512.64854926 -5.16992188 512.67382812 C-18.54306192 512.71848737 -31.43916711 511.51301542 -44.625 509.3125 C-46.33055054 509.03031616 -46.33055054 509.03031616 -48.07055664 508.74243164 C-91.33802759 500.97044532 -132.38793216 480.98345309 -165.625 452.3125 C-166.37007813 451.67828125 -167.11515625 451.0440625 -167.8828125 450.390625 C-181.38779833 438.57948485 -194.05918743 425.82889772 -204.625 411.3125 C-205.48149066 410.16255169 -206.33826433 409.01281411 -207.1953125 407.86328125 C-213.23534209 399.67315742 -218.61867614 391.16870382 -223.625 382.3125 C-224.0271875 381.60528809 -224.429375 380.89807617 -224.84375 380.16943359 C-237.8691741 357.03404164 -246.61801461 331.86287591 -251.9375 305.875 C-252.08485596 305.15610596 -252.23221191 304.43721191 -252.3840332 303.6965332 C-255.35789088 288.05024391 -255.99800362 272.57681954 -255.9375 256.6875 C-255.93534485 255.66959381 -255.9331897 254.65168762 -255.93096924 253.60293579 C-255.88129854 238.99386477 -255.63040191 224.66174147 -252.625 210.3125 C-252.42632324 209.33764648 -252.22764648 208.36279297 -252.02294922 207.35839844 C-241.90232806 158.9765226 -219.9858123 114.98821731 -185.625 79.3125 C-184.99287598 78.65314453 -184.36075195 77.99378906 -183.70947266 77.31445312 C-174.56502521 67.82619695 -165.26765991 59.0862956 -154.625 51.3125 C-153.47394983 50.45443848 -152.32290823 49.59636549 -151.171875 48.73828125 C-142.98224019 42.70072604 -134.47961724 37.31792698 -125.625 32.3125 C-124.91778809 31.9103125 -124.21057617 31.508125 -123.48193359 31.09375 C-100.34654164 18.0683259 -75.17537591 9.31948539 -49.1875 4 C-48.46860596 3.85264404 -47.74971191 3.70528809 -47.0090332 3.5534668 C-31.36274391 0.57960912 -15.88931954 -0.06050362 0 0 Z " fill="#247BDA" transform="translate(255.625,-0.3125)"/>
<path d="M0 0 C1.0636528 -0.00571014 2.1273056 -0.01142029 3.22319031 -0.01730347 C4.38011383 -0.01842133 5.53703735 -0.01953918 6.72901917 -0.02069092 C7.95571823 -0.02565582 9.1824173 -0.03062073 10.44628906 -0.03573608 C13.80634589 -0.04782507 17.16634062 -0.05529872 20.52641177 -0.05974674 C22.63164518 -0.06268589 24.73687325 -0.06679244 26.84210396 -0.07125092 C33.44583562 -0.08492131 40.04955493 -0.09458797 46.65329975 -0.09845281 C54.2436263 -0.10292071 61.83377162 -0.12041122 69.42404312 -0.1494534 C75.31051727 -0.17118372 81.19694089 -0.18116323 87.08345467 -0.18249393 C90.58940335 -0.18353466 94.09518159 -0.18928334 97.60108757 -0.20731354 C101.52529903 -0.22710177 105.44929065 -0.22246043 109.37355042 -0.21600342 C111.08160858 -0.22982559 111.08160858 -0.22982559 112.82417297 -0.243927 C136.17942724 -0.12449151 159.10540516 8.86360954 176.63356018 24.14044189 C177.24328674 24.61868408 177.85301331 25.09692627 178.48121643 25.58966064 C197.07254484 40.36955498 208.90065758 65.86088737 211.63356018 89.14044189 C211.98389432 94.92545096 212.00522399 100.71692024 212.00416565 106.51080322 C212.00855723 109.20113622 212.0450325 111.88984877 212.08277893 114.57989502 C212.15835625 126.07569763 211.57064892 135.7930287 203.33668518 144.60919189 C195.45427653 151.69612811 187.53256286 153.44058559 177.18464661 153.40786743 C176.13301921 153.41239854 175.08139181 153.41692966 173.99789691 153.42159808 C170.47438842 153.43425732 166.9510342 153.43262069 163.42750549 153.43096924 C160.90100404 153.43695355 158.37450442 153.44375887 155.8480072 153.45132446 C149.69724518 153.46716586 143.54653965 153.47343333 137.39575914 153.47454922 C132.39407528 153.47550051 127.39240404 153.47961486 122.39072418 153.48595047 C108.19974097 153.50355937 94.00878797 153.51279 79.81779376 153.51128952 C79.05316855 153.51120961 78.28854335 153.5111297 77.50074768 153.51104736 C76.35240393 153.51092472 76.35240393 153.51092472 75.18086132 153.5107996 C62.77868193 153.509987 50.37662407 153.529119 37.97447982 153.5573241 C25.22995308 153.58607833 12.48548555 153.59986297 -0.25907445 153.59813654 C-7.4100961 153.59747347 -14.56099036 153.60292911 -21.71198273 153.62449265 C-28.43926691 153.64464896 -35.16623791 153.64400484 -41.89355087 153.62945938 C-44.35979734 153.62736914 -46.8260606 153.63208492 -49.29227829 153.6441803 C-52.66503097 153.6596476 -56.03685849 153.65031368 -59.40959167 153.63491821 C-60.3802352 153.64520534 -61.35087873 153.65549247 -62.3509357 153.66609132 C-70.88875293 153.58026217 -79.39634813 151.22545126 -85.71141052 145.17828369 C-94.14341501 134.79593504 -95.40103554 124.74942573 -95.05931091 111.81842041 C-94.99160299 109.2092297 -94.97730263 106.60394912 -94.97190857 103.99395752 C-94.74164346 77.68021325 -86.6253853 55.82255265 -70.36643982 35.14044189 C-69.58268982 34.08856689 -68.79893982 33.03669189 -67.99143982 31.95294189 C-52.46414802 15.31655782 -32.27616815 5.91406986 -10.36643982 1.14044189 C-9.18680365 0.87372114 -9.18680365 0.87372114 -7.98333645 0.60161209 C-5.26789778 0.12307604 -2.75607866 0.00890044 0 0 Z " fill="#196FCE" transform="translate(197.36643981933594,277.85955810546875)"/>
<path d="M0 0 C5.37846548 3.84067887 10.05103926 8.37526871 14.7734375 12.98046875 C15.74216797 13.83898437 15.74216797 13.83898437 16.73046875 14.71484375 C29.72617195 26.52358577 37.40278526 44.38039535 41.7734375 60.98046875 C42.0003125 61.81320313 42.2271875 62.6459375 42.4609375 63.50390625 C47.9224133 87.54957055 41.61176596 113.12276894 29.5859375 134.16796875 C17.80619008 152.44688716 1.38295979 167.39140278 -19.2265625 174.98046875 C-20.25885986 175.36960449 -20.25885986 175.36960449 -21.31201172 175.76660156 C-47.25224653 185.246131 -74.80837338 182.78284364 -99.640625 171.41796875 C-123.60133796 159.29186584 -140.47453353 138.8850506 -149.4140625 113.625 C-157.1340179 89.4149928 -156.51564878 63.99888422 -145.2265625 40.98046875 C-144.45505859 39.37945312 -144.45505859 39.37945312 -143.66796875 37.74609375 C-139.72010845 29.97801759 -135.07595581 23.42487077 -129.2265625 16.98046875 C-128.78715332 16.49191406 -128.34774414 16.00335938 -127.89501953 15.5 C-94.45377269 -21.23461354 -41.50473253 -25.40275647 0 0 Z " fill="#2D84E4" transform="translate(311.2265625,67.01953125)"/>
<path d="M0 0 C3.43353455 0.0178938 6.86705982 0.01403985 10.30063152 0.01327848 C16.05611712 0.0151368 21.8113886 0.03230304 27.56680584 0.05981779 C34.17834366 0.09131272 40.7896484 0.10181096 47.40125585 0.10034668 C54.50931927 0.09898624 61.61729548 0.11291177 68.72533226 0.13123989 C70.74506696 0.13545964 72.76478719 0.13691627 74.78452587 0.13771772 C109.15881494 0.17745326 109.15881494 0.17745326 124.62442303 5.59643888 C125.95751507 6.0549423 125.95751507 6.0549423 127.31753826 6.52270842 C140.33925601 11.15781566 151.39678117 17.7591972 162.12442303 26.47143888 C162.85145428 27.0450717 163.57848553 27.61870451 164.32754803 28.20972013 C177.79782635 39.32004812 187.59054342 55.45742107 194.12442303 71.47143888 C194.5034074 72.38796232 194.88239178 73.30448576 195.27286053 74.24878263 C200.9348828 89.42555662 201.42674771 105.40262773 201.56192303 121.40893888 C201.57404827 122.15620237 201.58617352 122.90346586 201.59866619 123.6733737 C201.80260461 138.47698743 199.54677333 151.20159642 189.12442303 162.47143888 C175.35927296 174.91569071 159.68964688 174.04764144 142.237216 173.97314787 C139.7098285 173.97693476 137.18244308 173.98243784 134.65506268 173.98952055 C128.52509603 174.00199975 122.39539379 173.9959427 116.26544057 173.98084497 C109.11654846 173.96391322 101.96770692 173.96720404 94.81880094 173.97093905 C82.05881689 173.97680626 69.29893179 173.96268979 56.53897381 173.93799162 C44.17565486 173.91406411 31.81246801 173.90699274 19.44913006 173.91748381 C5.96198827 173.9289081 -7.52509255 173.93080521 -21.01223361 173.91638571 C-22.45185875 173.91485998 -23.8914839 173.91333962 -25.33110905 173.9118247 C-26.03930252 173.91106689 -26.747496 173.91030907 -27.47714988 173.9095283 C-32.45294633 173.90479793 -37.42871543 173.90662795 -42.40451145 173.9108901 C-49.10723486 173.91634771 -55.8097492 173.90551697 -62.51244831 173.88393545 C-64.96901427 173.87838139 -67.4255978 173.87788957 -69.88216496 173.88288832 C-73.24134536 173.88886551 -76.59997288 173.87628878 -79.95910358 173.85911894 C-80.92565439 173.86512898 -81.8922052 173.87113903 -82.88804543 173.8773312 C-94.17021517 173.77283371 -104.4305674 170.30204093 -112.88338947 162.65503263 C-121.5610937 153.3574924 -125.15499894 142.23107475 -125.24667072 129.71362638 C-125.25778385 128.8961241 -125.26889698 128.07862181 -125.28034687 127.23634672 C-125.30728724 124.60617858 -125.31373551 121.97673888 -125.31307697 119.34643888 C-125.31414448 118.44982542 -125.31521198 117.55321196 -125.31631184 116.62942839 C-125.29232882 102.70791172 -124.40511028 89.74611075 -119.87557697 76.47143888 C-119.64564045 75.76889982 -119.41570393 75.06636076 -119.17879963 74.34253263 C-111.32263402 50.90191396 -94.55931465 30.71656377 -73.87557697 17.47143888 C-72.97452229 16.88620451 -72.0734676 16.30097013 -71.14510822 15.69800138 C-49.02486004 2.02583719 -25.49435029 -0.16153306 0 0 Z M-40.87557697 13.47143888 C-42.05595287 13.80527082 -42.05595287 13.80527082 -43.26017475 14.14584684 C-57.34574455 18.52932335 -69.69853552 25.91132929 -80.87557697 35.47143888 C-81.47499104 35.92647795 -82.0744051 36.38151701 -82.69198322 36.85034513 C-100.37552669 50.5950947 -109.06881809 73.46161486 -113.87557697 94.47143888 C-114.13818317 95.5508676 -114.13818317 95.5508676 -114.40609455 96.65210295 C-115.47516221 103.07206827 -115.26335304 109.67570952 -115.33553791 116.16943693 C-115.36199908 117.97992953 -115.40276145 119.79027576 -115.45858479 121.60010099 C-115.82984914 133.81268541 -115.12163934 143.24245204 -107.87557697 153.47143888 C-101.7945912 159.68464778 -94.66699634 163.50797685 -85.88984585 163.85175562 C-83.98869581 163.86941769 -82.08735023 163.87085335 -80.18615437 163.85911894 C-79.13281812 163.86450448 -78.07948187 163.86989001 -76.99422634 163.87543875 C-73.47685469 163.88970667 -69.95985999 163.88261726 -66.4424715 163.87549162 C-63.915674 163.88119579 -61.38887907 163.88816023 -58.8620882 163.89628935 C-52.71825604 163.91236871 -46.57456227 163.91432229 -40.43071546 163.90907644 C-35.43479527 163.90502884 -30.43890525 163.90648531 -25.44298649 163.9118247 C-24.73091444 163.91257313 -24.01884239 163.91332155 -23.28519239 163.91409265 C-21.83843597 163.91562419 -20.39167956 163.91716254 -18.94492315 163.91870762 C-5.38840456 163.9324242 8.16805625 163.92700104 21.72457351 163.9155224 C34.11369795 163.90559229 46.502673 163.91852831 58.8917744 163.9424566 C71.62733124 163.96686779 84.36281857 163.97645042 97.09839833 163.96980387 C104.24267523 163.96631595 111.3868373 163.96851531 118.53109646 163.9860549 C125.25021209 164.00234674 131.9689974 163.99756387 138.68812084 163.97874975 C141.15113934 163.97506491 143.61417898 163.97816921 146.077178 163.98863554 C149.44545727 164.00185369 152.81279397 163.99028933 156.18103313 163.97264433 C157.15031242 163.98224934 158.11959171 163.99185434 159.1182431 164.00175041 C168.0652166 163.90564789 175.97172265 161.35874867 182.59317303 155.17456388 C189.14926025 147.88258932 191.43623635 140.30920184 191.42520428 130.66284513 C191.4294894 129.81906813 191.43377453 128.97529112 191.43818951 128.10594511 C191.44391619 126.32161683 191.44444535 124.5372652 191.44009686 122.75293303 C191.43696908 120.07338861 191.46030359 117.39498507 191.48575115 114.71557951 C191.58318242 88.8302393 183.98183059 65.38328498 167.12442303 45.47143888 C166.58301678 44.7972592 166.04161053 44.12307951 165.48379803 43.42847013 C150.08801777 24.8312309 125.73834003 13.70265849 102.12442303 10.47143888 C97.86840217 10.20431048 93.62714712 10.18746461 89.36368084 10.19678068 C88.13771191 10.19166975 86.91174297 10.18655882 85.64862347 10.18129301 C82.31771251 10.16985464 78.98705215 10.16731066 75.65613937 10.16985631 C72.85851265 10.17093483 70.06090824 10.16602014 67.26328635 10.16125089 C60.65252809 10.1501972 54.04182666 10.14969428 47.43106365 10.15576506 C40.65152707 10.16179596 33.8721985 10.14950685 27.09269738 10.12819499 C21.23664999 10.11047503 15.38066817 10.10459403 9.52459502 10.10783273 C6.0427504 10.10962993 2.56105403 10.10716881 -0.92076588 10.09311819 C-21.11056393 9.87433935 -21.11056393 9.87433935 -40.87557697 13.47143888 Z " fill="#FBFCFE" transform="translate(217.87557697296143,267.5285611152649)"/>
<path d="M0 0 C5.37846548 3.84067887 10.05103926 8.37526871 14.7734375 12.98046875 C15.74216797 13.83898437 15.74216797 13.83898437 16.73046875 14.71484375 C29.72617195 26.52358577 37.40278526 44.38039535 41.7734375 60.98046875 C42.0003125 61.81320313 42.2271875 62.6459375 42.4609375 63.50390625 C47.9224133 87.54957055 41.61176596 113.12276894 29.5859375 134.16796875 C17.80619008 152.44688716 1.38295979 167.39140278 -19.2265625 174.98046875 C-20.25885986 175.36960449 -20.25885986 175.36960449 -21.31201172 175.76660156 C-47.25224653 185.246131 -74.80837338 182.78284364 -99.640625 171.41796875 C-123.60133796 159.29186584 -140.47453353 138.8850506 -149.4140625 113.625 C-157.1340179 89.4149928 -156.51564878 63.99888422 -145.2265625 40.98046875 C-144.45505859 39.37945312 -144.45505859 39.37945312 -143.66796875 37.74609375 C-139.72010845 29.97801759 -135.07595581 23.42487077 -129.2265625 16.98046875 C-128.78715332 16.49191406 -128.34774414 16.00335938 -127.89501953 15.5 C-94.45377269 -21.23461354 -41.50473253 -25.40275647 0 0 Z M-121.78125 23.12890625 C-136.442638 40.226052 -143.8471918 59.57592848 -143.5390625 82.16796875 C-143.54228516 83.36099609 -143.54550781 84.55402344 -143.54882812 85.78320312 C-143.48878054 95.71289034 -142.09405603 104.58983179 -138.5390625 113.85546875 C-138.27633545 114.54036377 -138.0136084 115.22525879 -137.74291992 115.9309082 C-128.81696466 138.46533016 -111.90850427 154.63689095 -90.2265625 164.98046875 C-86.27921635 166.58111083 -82.34171105 167.88950217 -78.2265625 168.98046875 C-77.09089844 169.33367187 -75.95523438 169.686875 -74.78515625 170.05078125 C-58.87139512 173.95518224 -38.20713822 172.58299032 -23.2265625 165.98046875 C-22.53401367 165.68043945 -21.84146484 165.38041016 -21.12792969 165.07128906 C-12.71387833 161.33805325 -5.16869372 157.08358995 1.7734375 150.98046875 C2.50691406 150.38878906 3.24039063 149.79710937 3.99609375 149.1875 C18.46504173 137.1507251 27.19750589 119.99518898 31.7734375 101.98046875 C31.99773437 101.201875 32.22203125 100.42328125 32.453125 99.62109375 C37.64108379 79.01139444 32.40765511 55.83935487 21.92578125 37.80078125 C17.52104382 30.91783171 12.49310646 24.80587949 6.7734375 18.98046875 C6.03738281 18.21992187 5.30132812 17.459375 4.54296875 16.67578125 C-13.12544729 -0.43032339 -37.31455167 -6.73215143 -61.33984375 -6.35546875 C-84.53339531 -5.44028214 -105.93298102 6.6691285 -121.78125 23.12890625 Z " fill="#F8FBFE" transform="translate(311.2265625,67.01953125)"/>
</svg>
