<?xml version="1.0" encoding="UTF-8"?>
<svg version="1.1" xmlns="http://www.w3.org/2000/svg" width="512" height="512">
<path d="M0 0 C19.02296055 3.06864348 36.80119579 13.49441 53.68164062 22.30566406 C55.07484402 23.03151514 55.07484402 23.03151514 56.49619293 23.77202988 C65.88256374 28.67876078 75.21032051 33.69452421 84.44091797 38.88891602 C85.44847987 39.44778645 85.44847987 39.44778645 86.47639656 40.0179472 C89.59172926 41.79607896 91.28046671 42.95390319 93.30664062 45.99316406 C93.55503762 49.05881184 93.55503762 49.05881184 93.55273628 52.9216032 C93.55504397 53.63418168 93.55735166 54.34676016 93.55972928 55.08093193 C93.56505526 57.48696424 93.5560238 59.89273296 93.54714966 62.29875183 C93.54802119 64.03375779 93.54977122 65.76876349 93.55232799 67.50376779 C93.55681573 72.28568418 93.54877831 77.06751157 93.53877187 81.84941661 C93.53016015 87.00074128 93.53305591 92.15206066 93.53457642 97.3033905 C93.53562671 106.23315311 93.529335 115.16288656 93.51810074 124.09264183 C93.50186829 137.00367326 93.49664005 149.91469055 93.49412476 162.82573108 C93.4897441 183.77144265 93.47642498 204.71713867 93.45751953 225.6628418 C93.4391703 246.01342694 93.42500912 266.36400787 93.41650391 286.71459961 C93.41597846 287.96834958 93.41545301 289.22209955 93.41491164 290.51384195 C93.41230163 296.80333995 93.4097742 303.09283797 93.40728784 309.38233602 C93.38654381 361.58595669 93.35075901 413.78955836 93.30664062 465.99316406 C103.86664063 465.99316406 114.42664063 465.99316406 125.30664062 465.99316406 C125.30664062 471.27316406 125.30664062 476.55316406 125.30664062 481.99316406 C11.78664063 481.99316406 -101.73335938 481.99316406 -218.69335938 481.99316406 C-218.69335938 476.71316406 -218.69335938 471.43316406 -218.69335938 465.99316406 C-200.21335937 465.99316406 -181.73335937 465.99316406 -162.69335938 465.99316406 C-162.69335938 455.43316406 -162.69335938 444.87316406 -162.69335938 433.99316406 C-167.97335938 433.99316406 -173.25335938 433.99316406 -178.69335938 433.99316406 C-178.69335938 439.27316406 -178.69335938 444.55316406 -178.69335938 449.99316406 C-183.97335938 449.99316406 -189.25335938 449.99316406 -194.69335938 449.99316406 C-194.69335938 444.71316406 -194.69335938 439.43316406 -194.69335938 433.99316406 C-199.97335938 433.99316406 -205.25335938 433.99316406 -210.69335938 433.99316406 C-210.69335938 428.71316406 -210.69335938 423.43316406 -210.69335938 417.99316406 C-205.41335937 417.99316406 -200.13335937 417.99316406 -194.69335938 417.99316406 C-194.69335938 412.71316406 -194.69335938 407.43316406 -194.69335938 401.99316406 C-199.97335938 401.99316406 -205.25335938 401.99316406 -210.69335938 401.99316406 C-210.69335938 396.71316406 -210.69335938 391.43316406 -210.69335938 385.99316406 C-205.41335937 385.99316406 -200.13335937 385.99316406 -194.69335938 385.99316406 C-194.69335938 380.71316406 -194.69335938 375.43316406 -194.69335938 369.99316406 C-199.97335938 369.99316406 -205.25335938 369.99316406 -210.69335938 369.99316406 C-210.69335938 364.71316406 -210.69335938 359.43316406 -210.69335938 353.99316406 C-205.41335937 353.99316406 -200.13335937 353.99316406 -194.69335938 353.99316406 C-194.69335938 348.71316406 -194.69335938 343.43316406 -194.69335938 337.99316406 C-199.97335938 337.99316406 -205.25335938 337.99316406 -210.69335938 337.99316406 C-210.69335938 332.71316406 -210.69335938 327.43316406 -210.69335938 321.99316406 C-205.41335937 321.99316406 -200.13335937 321.99316406 -194.69335938 321.99316406 C-194.69335938 316.71316406 -194.69335938 311.43316406 -194.69335938 305.99316406 C-199.97335938 305.99316406 -205.25335938 305.99316406 -210.69335938 305.99316406 C-210.69335938 300.71316406 -210.69335938 295.43316406 -210.69335938 289.99316406 C-205.41335937 289.99316406 -200.13335937 289.99316406 -194.69335938 289.99316406 C-194.69335938 284.71316406 -194.69335938 279.43316406 -194.69335938 273.99316406 C-199.97335938 273.99316406 -205.25335938 273.99316406 -210.69335938 273.99316406 C-210.69335938 268.71316406 -210.69335938 263.43316406 -210.69335938 257.99316406 C-194.85335937 257.99316406 -179.01335937 257.99316406 -162.69335938 257.99316406 C-162.69335938 254.03316406 -162.69335938 250.07316406 -162.69335938 245.99316406 C-158.69335938 241.99316406 -158.69335938 241.99316406 -155.66894531 241.5390625 C-154.5168457 241.56000977 -153.36474609 241.58095703 -152.17773438 241.60253906 C-150.30214844 241.621875 -150.30214844 241.621875 -148.38867188 241.64160156 C-146.43574219 241.691875 -146.43574219 241.691875 -144.44335938 241.74316406 C-143.1259375 241.76121094 -141.80851562 241.77925781 -140.45117188 241.79785156 C-137.1978363 241.84500135 -133.94596313 241.91080362 -130.69335938 241.99316406 C-130.72478027 240.75228027 -130.72478027 240.75228027 -130.75683594 239.48632812 C-130.83997557 235.73873036 -130.89201468 231.99132657 -130.94335938 228.24316406 C-130.976875 226.94121094 -131.01039063 225.63925781 -131.04492188 224.29785156 C-131.06425781 222.42226563 -131.06425781 222.42226563 -131.08398438 220.50878906 C-131.11540527 218.78063965 -131.11540527 218.78063965 -131.14746094 217.01757812 C-130.57618664 213.21276843 -129.74293379 212.29577918 -126.69335938 209.99316406 C-124.07217608 209.61861426 -121.87766075 209.48505211 -119.26269531 209.5390625 C-118.52083984 209.53847839 -117.77898437 209.53789429 -117.01464844 209.53729248 C-114.56853036 209.54007381 -112.1236389 209.5711662 -109.67773438 209.60253906 C-107.9795193 209.61000132 -106.28129561 209.61569433 -104.58306885 209.61968994 C-100.11779928 209.63494755 -95.65305184 209.67423017 -91.18798828 209.71850586 C-86.62995466 209.75945599 -82.07183651 209.77770039 -77.51367188 209.79785156 C-68.57333856 209.84072453 -59.63339242 209.90897721 -50.69335938 209.99316406 C-50.69704655 208.94548985 -50.70073372 207.89781563 -50.70453262 206.81839371 C-50.79325948 181.3474702 -50.85902843 155.8765667 -50.90060806 130.40552139 C-50.92124918 118.08800012 -50.94939945 105.77058083 -50.99511719 93.453125 C-51.03493743 82.71949629 -51.0607809 71.98594142 -51.06971335 61.2522409 C-51.07493624 55.56675183 -51.08724421 49.88147403 -51.1162796 44.19605255 C-51.14337258 38.84778586 -51.15181672 33.49981805 -51.1457901 28.15148926 C-51.14689308 26.185833 -51.1548832 24.22016704 -51.17018127 22.25457001 C-51.19001352 19.57561335 -51.18532349 16.89779268 -51.17437744 14.21881104 C-51.18602881 13.43670895 -51.19768017 12.65460686 -51.20968461 11.84880471 C-51.17042062 8.30617431 -50.98602324 6.3728112 -48.79174614 3.52636814 C-37.63990972 -4.62181568 -12.97078581 -1.7821282 0 0 Z M-178.69335938 273.99316406 C-178.69335938 279.27316406 -178.69335938 284.55316406 -178.69335938 289.99316406 C-173.41335937 289.99316406 -168.13335937 289.99316406 -162.69335938 289.99316406 C-162.69335938 284.71316406 -162.69335938 279.43316406 -162.69335938 273.99316406 C-167.97335938 273.99316406 -173.25335938 273.99316406 -178.69335938 273.99316406 Z M-178.69335938 305.99316406 C-178.69335938 311.27316406 -178.69335938 316.55316406 -178.69335938 321.99316406 C-173.41335937 321.99316406 -168.13335937 321.99316406 -162.69335938 321.99316406 C-162.69335938 316.71316406 -162.69335938 311.43316406 -162.69335938 305.99316406 C-167.97335938 305.99316406 -173.25335938 305.99316406 -178.69335938 305.99316406 Z M-178.69335938 337.99316406 C-178.69335938 343.27316406 -178.69335938 348.55316406 -178.69335938 353.99316406 C-173.41335937 353.99316406 -168.13335937 353.99316406 -162.69335938 353.99316406 C-162.69335938 348.71316406 -162.69335938 343.43316406 -162.69335938 337.99316406 C-167.97335938 337.99316406 -173.25335938 337.99316406 -178.69335938 337.99316406 Z M-178.69335938 369.99316406 C-178.69335938 375.27316406 -178.69335938 380.55316406 -178.69335938 385.99316406 C-173.41335937 385.99316406 -168.13335937 385.99316406 -162.69335938 385.99316406 C-162.69335938 380.71316406 -162.69335938 375.43316406 -162.69335938 369.99316406 C-167.97335938 369.99316406 -173.25335938 369.99316406 -178.69335938 369.99316406 Z M-178.69335938 401.99316406 C-178.69335938 407.27316406 -178.69335938 412.55316406 -178.69335938 417.99316406 C-173.41335937 417.99316406 -168.13335937 417.99316406 -162.69335938 417.99316406 C-162.69335938 412.71316406 -162.69335938 407.43316406 -162.69335938 401.99316406 C-167.97335938 401.99316406 -173.25335938 401.99316406 -178.69335938 401.99316406 Z " fill="#3D9AE2" transform="translate(306.693359375,14.0068359375)"/>
<path d="M0 0 C44.86526795 0 44.86526795 0 58.5234375 7.83984375 C60.07596565 8.65148845 61.63221998 9.45603878 63.19180298 10.25404358 C67.16637149 12.31085193 71.08429956 14.45666834 74.99609375 16.62994385 C79.0396146 18.85244865 83.13350967 20.97823511 87.22265625 23.11523438 C93.14022883 26.22304764 99.0369979 29.36476122 104.89599609 32.58178711 C105.80857681 33.08133408 105.80857681 33.08133408 106.73959351 33.5909729 C110.87590245 35.87590245 110.87590245 35.87590245 112 37 C112.09805998 39.17877585 112.12371135 41.36080582 112.12304783 43.54178715 C112.12420167 44.23686258 112.12535552 44.93193801 112.12654433 45.64807633 C112.12921768 48.00654217 112.12468297 50.36494146 112.12025452 52.72340393 C112.12069007 54.4195601 112.12156469 56.1157162 112.12284368 57.81187195 C112.12509173 62.49566794 112.12106316 67.17944129 112.11606562 71.8632344 C112.11176572 76.90552706 112.11320722 81.94781833 112.1139679 86.9901123 C112.11449342 95.73382942 112.11134362 104.4775391 112.10573006 113.22125435 C112.09761895 125.86335471 112.09500024 138.50545147 112.09374207 151.14755415 C112.09155093 171.6562328 112.08488919 192.16490749 112.07543945 212.67358398 C112.06626692 232.60131816 112.05918531 252.52905125 112.05493164 272.45678711 C112.05466892 273.68417957 112.05440619 274.91157203 112.05413551 276.1761582 C112.05283052 282.33334084 112.0515668 288.49052349 112.05032361 294.64770615 C112.03994908 345.76514096 112.02150975 396.88256843 112 448 C85.6 448 59.2 448 32 448 C31.970271 438.07232544 31.970271 438.07232544 31.93994141 427.9440918 C31.8731677 406.12711751 31.79562767 384.31019145 31.71247292 362.49327374 C31.66229923 349.25993194 31.61585692 336.02659649 31.578125 322.79321289 C31.5452378 311.26226879 31.50542483 299.73137325 31.45720994 288.20048267 C31.43191236 282.0920229 31.41014075 275.98359549 31.39665604 269.87509727 C31.38386522 264.13042072 31.3618432 258.3858549 31.33261681 252.64123917 C31.32351765 250.52844881 31.31784539 248.4156406 31.31578636 246.30283165 C31.31248029 243.42671082 31.29704799 240.55090715 31.2784729 237.67485046 C31.28040763 236.83147131 31.28234237 235.98809216 31.28433573 235.11915606 C31.24657004 231.22984121 31.20720291 229.31080436 29 226 C19.80761184 222.93587061 9.68246896 224.37240265 0 224 C0 150.08 0 76.16 0 0 Z " fill="#BCDAFE" transform="translate(272,32)"/>
<path d="M0 0 C42.24 0 84.48 0 128 0 C128 68.64 128 137.28 128 208 C85.76 208 43.52 208 0 208 C0 139.36 0 70.72 0 0 Z " fill="#BDDBFF" transform="translate(160,272)"/>
<path d="M0 0 C31.68 0 63.36 0 96 0 C96 5.28 96 10.56 96 16 C64.32 16 32.64 16 0 16 C0 10.72 0 5.44 0 0 Z " fill="#3D9AE2" transform="translate(176,448)"/>
<path d="M0 0 C31.68 0 63.36 0 96 0 C96 5.28 96 10.56 96 16 C64.32 16 32.64 16 0 16 C0 10.72 0 5.44 0 0 Z " fill="#3D9AE2" transform="translate(176,416)"/>
<path d="M0 0 C31.68 0 63.36 0 96 0 C96 5.28 96 10.56 96 16 C64.32 16 32.64 16 0 16 C0 10.72 0 5.44 0 0 Z " fill="#3D9AE2" transform="translate(176,384)"/>
<path d="M0 0 C31.68 0 63.36 0 96 0 C96 5.28 96 10.56 96 16 C64.32 16 32.64 16 0 16 C0 10.72 0 5.44 0 0 Z " fill="#3D9AE2" transform="translate(176,352)"/>
<path d="M0 0 C31.68 0 63.36 0 96 0 C96 5.28 96 10.56 96 16 C64.32 16 32.64 16 0 16 C0 10.72 0 5.44 0 0 Z " fill="#3D9AE2" transform="translate(176,320)"/>
<path d="M0 0 C31.68 0 63.36 0 96 0 C96 5.28 96 10.56 96 16 C64.32 16 32.64 16 0 16 C0 10.72 0 5.44 0 0 Z " fill="#3D9AE2" transform="translate(176,288)"/>
<path d="M0 0 C21.12 0 42.24 0 64 0 C64 5.28 64 10.56 64 16 C42.88 16 21.76 16 0 16 C0 10.72 0 5.44 0 0 Z " fill="#BDDBFF" transform="translate(192,240)"/>
<path d="M0 0 C5.28 0 10.56 0 16 0 C16 5.28 16 10.56 16 16 C10.72 16 5.44 16 0 16 C0 10.72 0 5.44 0 0 Z " fill="#3D9AE2" transform="translate(352,448)"/>
<path d="M0 0 C5.28 0 10.56 0 16 0 C16 5.28 16 10.56 16 16 C10.72 16 5.44 16 0 16 C0 10.72 0 5.44 0 0 Z " fill="#3D9AE2" transform="translate(320,448)"/>
<path d="M0 0 C5.28 0 10.56 0 16 0 C16 5.28 16 10.56 16 16 C10.72 16 5.44 16 0 16 C0 10.72 0 5.44 0 0 Z " fill="#3D9AE2" transform="translate(352,416)"/>
<path d="M0 0 C5.28 0 10.56 0 16 0 C16 5.28 16 10.56 16 16 C10.72 16 5.44 16 0 16 C0 10.72 0 5.44 0 0 Z " fill="#3D9AE2" transform="translate(320,416)"/>
<path d="M0 0 C5.28 0 10.56 0 16 0 C16 5.28 16 10.56 16 16 C10.72 16 5.44 16 0 16 C0 10.72 0 5.44 0 0 Z " fill="#3D9AE2" transform="translate(352,384)"/>
<path d="M0 0 C5.28 0 10.56 0 16 0 C16 5.28 16 10.56 16 16 C10.72 16 5.44 16 0 16 C0 10.72 0 5.44 0 0 Z " fill="#3D9AE2" transform="translate(320,384)"/>
<path d="M0 0 C5.28 0 10.56 0 16 0 C16 5.28 16 10.56 16 16 C10.72 16 5.44 16 0 16 C0 10.72 0 5.44 0 0 Z " fill="#3D9AE2" transform="translate(352,352)"/>
<path d="M0 0 C5.28 0 10.56 0 16 0 C16 5.28 16 10.56 16 16 C10.72 16 5.44 16 0 16 C0 10.72 0 5.44 0 0 Z " fill="#3D9AE2" transform="translate(320,352)"/>
<path d="M0 0 C5.28 0 10.56 0 16 0 C16 5.28 16 10.56 16 16 C10.72 16 5.44 16 0 16 C0 10.72 0 5.44 0 0 Z " fill="#3D9AE2" transform="translate(352,320)"/>
<path d="M0 0 C5.28 0 10.56 0 16 0 C16 5.28 16 10.56 16 16 C10.72 16 5.44 16 0 16 C0 10.72 0 5.44 0 0 Z " fill="#3D9AE2" transform="translate(320,320)"/>
<path d="M0 0 C5.28 0 10.56 0 16 0 C16 5.28 16 10.56 16 16 C10.72 16 5.44 16 0 16 C0 10.72 0 5.44 0 0 Z " fill="#3D9AE2" transform="translate(352,288)"/>
<path d="M0 0 C5.28 0 10.56 0 16 0 C16 5.28 16 10.56 16 16 C10.72 16 5.44 16 0 16 C0 10.72 0 5.44 0 0 Z " fill="#3D9AE2" transform="translate(320,288)"/>
<path d="M0 0 C5.28 0 10.56 0 16 0 C16 5.28 16 10.56 16 16 C10.72 16 5.44 16 0 16 C0 10.72 0 5.44 0 0 Z " fill="#3D9AE2" transform="translate(352,256)"/>
<path d="M0 0 C5.28 0 10.56 0 16 0 C16 5.28 16 10.56 16 16 C10.72 16 5.44 16 0 16 C0 10.72 0 5.44 0 0 Z " fill="#3D9AE2" transform="translate(320,256)"/>
<path d="M0 0 C5.28 0 10.56 0 16 0 C16 5.28 16 10.56 16 16 C10.72 16 5.44 16 0 16 C0 10.72 0 5.44 0 0 Z " fill="#3D9AE2" transform="translate(352,224)"/>
<path d="M0 0 C5.28 0 10.56 0 16 0 C16 5.28 16 10.56 16 16 C10.72 16 5.44 16 0 16 C0 10.72 0 5.44 0 0 Z " fill="#3D9AE2" transform="translate(320,224)"/>
<path d="M0 0 C5.28 0 10.56 0 16 0 C16 5.28 16 10.56 16 16 C10.72 16 5.44 16 0 16 C0 10.72 0 5.44 0 0 Z " fill="#3D9AE2" transform="translate(288,224)"/>
<path d="M0 0 C5.28 0 10.56 0 16 0 C16 5.28 16 10.56 16 16 C10.72 16 5.44 16 0 16 C0 10.72 0 5.44 0 0 Z " fill="#3D9AE2" transform="translate(352,192)"/>
<path d="M0 0 C5.28 0 10.56 0 16 0 C16 5.28 16 10.56 16 16 C10.72 16 5.44 16 0 16 C0 10.72 0 5.44 0 0 Z " fill="#3D9AE2" transform="translate(320,192)"/>
<path d="M0 0 C5.28 0 10.56 0 16 0 C16 5.28 16 10.56 16 16 C10.72 16 5.44 16 0 16 C0 10.72 0 5.44 0 0 Z " fill="#3D9AE2" transform="translate(288,192)"/>
<path d="M0 0 C5.28 0 10.56 0 16 0 C16 5.28 16 10.56 16 16 C10.72 16 5.44 16 0 16 C0 10.72 0 5.44 0 0 Z " fill="#3D9AE2" transform="translate(352,160)"/>
<path d="M0 0 C5.28 0 10.56 0 16 0 C16 5.28 16 10.56 16 16 C10.72 16 5.44 16 0 16 C0 10.72 0 5.44 0 0 Z " fill="#3D9AE2" transform="translate(320,160)"/>
<path d="M0 0 C5.28 0 10.56 0 16 0 C16 5.28 16 10.56 16 16 C10.72 16 5.44 16 0 16 C0 10.72 0 5.44 0 0 Z " fill="#3D9AE2" transform="translate(288,160)"/>
<path d="M0 0 C5.28 0 10.56 0 16 0 C16 5.28 16 10.56 16 16 C10.72 16 5.44 16 0 16 C0 10.72 0 5.44 0 0 Z " fill="#3D9AE2" transform="translate(352,128)"/>
<path d="M0 0 C5.28 0 10.56 0 16 0 C16 5.28 16 10.56 16 16 C10.72 16 5.44 16 0 16 C0 10.72 0 5.44 0 0 Z " fill="#3D9AE2" transform="translate(320,128)"/>
<path d="M0 0 C5.28 0 10.56 0 16 0 C16 5.28 16 10.56 16 16 C10.72 16 5.44 16 0 16 C0 10.72 0 5.44 0 0 Z " fill="#3D9AE2" transform="translate(288,128)"/>
<path d="M0 0 C5.28 0 10.56 0 16 0 C16 5.28 16 10.56 16 16 C10.72 16 5.44 16 0 16 C0 10.72 0 5.44 0 0 Z " fill="#3D9AE2" transform="translate(352,96)"/>
<path d="M0 0 C5.28 0 10.56 0 16 0 C16 5.28 16 10.56 16 16 C10.72 16 5.44 16 0 16 C0 10.72 0 5.44 0 0 Z " fill="#3D9AE2" transform="translate(320,96)"/>
<path d="M0 0 C5.28 0 10.56 0 16 0 C16 5.28 16 10.56 16 16 C10.72 16 5.44 16 0 16 C0 10.72 0 5.44 0 0 Z " fill="#3D9AE2" transform="translate(288,96)"/>
<path d="M0 0 C5.28 0 10.56 0 16 0 C16 5.28 16 10.56 16 16 C10.72 16 5.44 16 0 16 C0 10.72 0 5.44 0 0 Z " fill="#3D9AE2" transform="translate(352,64)"/>
<path d="M0 0 C5.28 0 10.56 0 16 0 C16 5.28 16 10.56 16 16 C10.72 16 5.44 16 0 16 C0 10.72 0 5.44 0 0 Z " fill="#3D9AE2" transform="translate(320,64)"/>
<path d="M0 0 C5.28 0 10.56 0 16 0 C16 5.28 16 10.56 16 16 C10.72 16 5.44 16 0 16 C0 10.72 0 5.44 0 0 Z " fill="#3D9AE2" transform="translate(288,64)"/>
</svg>
