<?xml version="1.0" encoding="UTF-8"?>
<svg version="1.1" xmlns="http://www.w3.org/2000/svg" width="512" height="512">
<path d="M0 0 C5.572184 1.27580011 10.84601568 3.39950289 16.16555786 5.45965576 C17.5024429 5.96827535 18.83970386 6.47590778 20.17730713 6.9826355 C23.04774199 8.07224447 25.91561271 9.16825871 28.78161621 10.26947021 C33.34359824 12.0222138 37.91088718 13.76080684 42.47927856 15.49676514 C47.27831835 17.32092535 52.07710739 19.14571888 56.87416077 20.97509766 C68.36501322 25.35608781 79.87099208 29.69536375 91.38821411 34.00653076 C92.19029486 34.30681561 92.9923756 34.60710045 93.81876183 34.91648483 C99.3492834 36.98674399 104.8804224 39.05535066 110.41165161 41.12371826 C119.58235531 44.55326258 128.7520979 47.98524803 137.91438961 51.43721581 C141.15317505 52.6573341 144.39298331 53.87455885 147.63534546 55.08514404 C151.29988237 56.45355241 154.95946476 57.83489578 158.61868286 59.21746826 C160.24938972 59.82322693 160.24938972 59.82322693 161.91304016 60.44122314 C162.9036293 60.81791138 163.89421844 61.19459961 164.91482544 61.58270264 C165.7763472 61.90637817 166.63786896 62.23005371 167.52549744 62.5635376 C169.90814954 63.71244119 171.10176903 64.5397445 172.72415161 66.62371826 C173.0967471 69.11869544 173.0967471 69.11869544 173.0932951 72.16221142 C173.09926824 73.3211885 173.10524139 74.48016558 173.11139554 75.67426318 C173.10265701 76.95342854 173.09391849 78.2325939 173.08491516 79.55052185 C173.08622273 80.91842176 173.08884824 82.28632095 173.09268266 83.65421611 C173.09940929 87.42145465 173.08736527 91.18843864 173.07234848 94.95564473 C173.0594236 99.01493469 173.06377505 103.07420966 173.0660553 107.1335144 C173.06763029 114.16929732 173.05819758 121.20499693 173.04134178 128.2407589 C173.01698683 138.41334444 173.00915011 148.58588961 173.00537781 158.75850115 C172.99880781 175.26185483 172.9788318 191.7651641 172.95046997 208.26849365 C172.92294357 224.30234555 172.90170305 240.3361854 172.88894653 256.37005615 C172.88776428 257.8519172 172.88776428 257.8519172 172.88655814 259.36371484 C172.8826431 264.31963044 172.87885196 269.27554613 172.87512243 274.23146188 C172.84400946 315.36224492 172.79115876 356.49297905 172.72415161 397.62371826 C173.86047783 397.61372551 173.86047783 397.61372551 175.01976013 397.60353088 C182.15613604 397.54343994 189.29238941 397.49775435 196.42895222 397.46828175 C200.09801837 397.45262021 203.76687562 397.43137351 207.43582153 397.3973999 C210.97604109 397.36482312 214.5160596 397.34686892 218.05641747 397.33908653 C220.06562816 397.33083902 222.07475789 397.30741689 224.08384705 397.28382874 C225.91540596 397.28348885 225.91540596 397.28348885 227.78396606 397.28314209 C229.39946098 397.27314934 229.39946098 397.27314934 231.04759216 397.26295471 C233.72415161 397.62371826 233.72415161 397.62371826 235.57197571 398.95750427 C237.36855922 401.55562542 237.10730703 403.55847488 236.72415161 406.62371826 C235.084162 408.88985163 234.19014509 409.54813353 231.40575123 409.99976575 C230.48503676 410.00025281 229.5643223 410.00073987 228.6157074 410.00124168 C227.55263209 410.00906493 226.48955679 410.01688817 225.39426708 410.02494848 C224.22220368 410.01825631 223.05014029 410.01156415 221.84255981 410.00466919 C219.97979007 410.01168915 219.97979007 410.01168915 218.07938862 410.01885092 C214.62570799 410.02877093 211.17251439 410.02516799 207.71886301 410.01589227 C203.99692485 410.00912265 200.27503019 410.0195726 196.55310059 410.02783203 C189.25923941 410.04119395 181.96547067 410.03828072 174.67160583 410.02959411 C168.74539794 410.02282762 162.81921601 410.02189635 156.89300537 410.02516556 C155.6293496 410.02585511 155.6293496 410.02585511 154.34016544 410.02655859 C152.62893922 410.02751773 150.91771302 410.02849037 149.20648682 410.02947636 C133.14842152 410.03803745 117.09040754 410.02818485 101.03235066 410.01207526 C87.24437058 409.99867142 73.45646626 410.00099931 59.66848755 410.01483154 C43.66912049 410.03087467 27.66979844 410.03721341 11.67042446 410.02799475 C9.96538227 410.02703907 8.26034006 410.02609596 6.55529785 410.02516556 C5.29682422 410.02447132 5.29682422 410.02447132 4.01292688 410.02376305 C-1.9083242 410.02116935 -7.82954679 410.02555232 -13.75079346 410.03260422 C-20.96373218 410.04100536 -28.17657293 410.03876839 -35.38950038 410.02276199 C-39.07188229 410.01486049 -42.75410066 410.0118194 -46.43648148 410.02170944 C-50.42249964 410.03225332 -54.40824815 410.0196907 -58.39425659 410.00466919 C-59.56631999 410.01136135 -60.73838339 410.01805352 -61.94596386 410.02494848 C-63.00903916 410.01712524 -64.07211447 410.00930199 -65.16740417 410.00124168 C-66.54847587 410.0005111 -66.54847587 410.0005111 -67.95744801 409.99976575 C-70.74184187 409.54813353 -71.63585878 408.88985163 -73.27584839 406.62371826 C-73.9110281 401.54228054 -73.9110281 401.54228054 -72.12367249 398.95750427 C-69.48836199 397.05529925 -67.56657264 397.26315708 -64.33566284 397.28314209 C-63.11462357 397.28336868 -61.89358429 397.28359528 -60.63554382 397.28382874 C-58.6573188 397.30705452 -58.6573188 397.30705452 -56.63912964 397.33074951 C-55.27578701 397.33634583 -53.91243834 397.34061576 -52.54908752 397.34361267 C-48.96341247 397.35505877 -45.37810285 397.3845234 -41.79257202 397.41772461 C-38.13275089 397.44843087 -34.47287062 397.46211916 -30.81295776 397.47723389 C-23.63375483 397.50939377 -16.45485284 397.56058673 -9.27584839 397.62371826 C-9.27698755 396.78904941 -9.27812671 395.95438055 -9.27930039 395.0944187 C-9.34637785 345.66792882 -9.39787931 296.24144375 -9.42904438 246.81491749 C-9.43279667 240.8853803 -9.43667962 234.9558432 -9.44064331 229.02630615 C-9.44143024 227.84580025 -9.44221717 226.66529435 -9.44302795 225.44901554 C-9.45609575 206.31334288 -9.47975713 187.17769715 -9.50730678 168.04204049 C-9.53532279 148.41936235 -9.55201658 128.79669836 -9.55811387 109.17400104 C-9.56223823 97.05755702 -9.57528276 84.94118912 -9.59959779 72.82476852 C-9.61540806 64.52555544 -9.62025947 56.22638192 -9.61635252 47.92715486 C-9.61442361 43.13292511 -9.61746094 38.3388287 -9.63346481 33.54462242 C-9.64799276 29.16074231 -9.64884738 24.77708607 -9.63854507 20.39319596 C-9.63727055 18.80230072 -9.64113618 17.21139187 -9.65049794 15.62052365 C-9.66243814 13.46731169 -9.65611017 11.31492094 -9.64499187 9.16172314 C-9.64613104 7.96294605 -9.6472702 6.76416897 -9.64844388 5.52906531 C-9.27584839 2.62371826 -9.27584839 2.62371826 -7.99324018 0.71445209 C-5.36726996 -0.95332958 -2.96769753 -0.44730838 0 0 Z M2.72415161 14.62371826 C2.72415161 141.01371826 2.72415161 267.40371826 2.72415161 397.62371826 C17.57415161 397.62371826 32.42415161 397.62371826 47.72415161 397.62371826 C47.76153442 391.73914795 47.79891724 385.85457764 47.83743286 379.79168701 C47.86770141 376.06835016 47.8988419 372.34506176 47.93313599 368.62176514 C47.98751059 362.70927328 48.03861825 356.79687729 48.07058716 350.88421631 C48.09655695 346.11839602 48.13691411 341.35289667 48.18733788 336.58727455 C48.20404951 334.76721495 48.21553696 332.94709977 48.22176552 331.12697411 C48.23136011 328.58151817 48.25936251 326.03689132 48.29177856 323.49163818 C48.29034348 322.73566345 48.28890839 321.97968872 48.28742981 321.20080566 C48.33900478 318.34572737 48.4148409 316.14632629 49.8886261 313.65623474 C52.50208579 312.18611614 54.5317467 312.24233736 57.52493286 312.23553467 C58.71626831 312.22607819 59.90760376 312.2166217 61.13504028 312.20687866 C63.06633789 312.2159877 63.06633789 312.2159877 65.03665161 312.22528076 C66.37039347 312.22325971 67.70413424 312.22034801 69.03787231 312.21658325 C71.83216887 312.2121613 74.62617759 312.21858636 77.42044067 312.23260498 C81.00189626 312.24969732 84.58267743 312.23985537 88.16410828 312.22188759 C90.91792887 312.21104595 93.67158962 312.21449772 96.42541504 312.22227097 C98.38803546 312.22524498 100.3506621 312.21613534 102.31326294 312.20687866 C103.50459839 312.21633514 104.69593384 312.22579163 105.92337036 312.23553467 C106.97355347 312.23792145 108.02373657 312.24030823 109.10574341 312.24276733 C111.72415161 312.62371826 111.72415161 312.62371826 113.55967712 313.65623474 C115.39955327 316.76486961 115.16319181 319.9795256 115.15652466 323.49163818 C115.17181213 324.69198448 115.17181213 324.69198448 115.18740845 325.9165802 C115.21761092 328.56251968 115.22681531 331.20809758 115.23587036 333.85418701 C115.2527117 335.68837189 115.27086119 337.52254518 115.29026794 339.35670471 C115.3378334 344.18503196 115.36760036 349.01331227 115.39370728 353.84179688 C115.42871408 359.63470894 115.48574535 365.42744067 115.53910065 371.22020721 C115.61769128 380.02135501 115.66823877 388.8222655 115.72415161 397.62371826 C130.57415161 397.62371826 145.42415161 397.62371826 160.72415161 397.62371826 C160.72415161 290.70371826 160.72415161 183.78371826 160.72415161 73.62371826 C149.09877266 68.97356668 137.52120207 64.35206854 125.77883911 60.03387451 C124.41706633 59.53053252 123.05540629 59.02688545 121.69384766 58.52296448 C118.81635075 57.45834598 115.93837797 56.39503052 113.05996704 55.33288574 C105.36466759 52.49292671 97.67271462 49.64393931 89.98196411 46.79168701 C89.19424622 46.49959099 88.40652832 46.20749496 87.59494019 45.90654755 C75.55460189 41.43966733 63.53478864 36.92046403 51.52883911 32.36199951 C50.76014874 32.07021631 49.99145836 31.77843311 49.19947433 31.477808 C41.77448926 28.65880325 34.35150896 25.83459858 26.9319706 23.00128841 C24.22195014 21.96701842 21.51100336 20.93519233 18.79986954 19.90384483 C16.94090767 19.19550721 15.08335018 18.48348743 13.22583008 17.77137756 C12.12796173 17.35381699 11.03009338 16.93625641 9.8989563 16.50604248 C8.46359528 15.957491 8.46359528 15.957491 6.99923706 15.39785767 C4.8091176 14.51634147 4.8091176 14.51634147 2.72415161 14.62371826 Z M60.72415161 323.62371826 C60.72415161 348.04371826 60.72415161 372.46371826 60.72415161 397.62371826 C74.58415161 397.62371826 88.44415161 397.62371826 102.72415161 397.62371826 C102.72415161 373.20371826 102.72415161 348.78371826 102.72415161 323.62371826 C88.86415161 323.62371826 75.00415161 323.62371826 60.72415161 323.62371826 Z " fill="#000000" transform="translate(174.27584838867188,51.37628173828125)"/>
<path d="M0 0 C0.80610718 -0.00287018 1.61221436 -0.00574036 2.44274902 -0.00869751 C4.14396875 -0.01073542 5.84521205 -0.00522464 7.54638672 0.00732422 C10.14734391 0.02338251 12.74674727 0.00746707 15.34765625 -0.01171875 C17.00260759 -0.00973627 18.65755796 -0.00589249 20.3125 0 C21.47670471 -0.00910904 21.47670471 -0.00910904 22.66442871 -0.0184021 C25.93367271 0.02409029 28.25067808 0.16662468 31.11914062 1.80615234 C32.99387785 3.74818477 33.57652018 4.68762367 33.65625 7.3984375 C31.39471154 12.02920673 31.39471154 12.02920673 28.65625 13.3984375 C25.93160561 13.5217584 23.23352381 13.58683326 20.5078125 13.6015625 C19.29440689 13.61011261 19.29440689 13.61011261 18.05648804 13.61883545 C16.34333607 13.6282884 14.6301659 13.6348206 12.91699219 13.63867188 C10.29850457 13.64837357 7.68080318 13.67939168 5.0625 13.7109375 C3.39844216 13.71746801 1.73437871 13.72271829 0.0703125 13.7265625 C-1.10330338 13.7450827 -1.10330338 13.7450827 -2.30062866 13.76397705 C-5.54082812 13.75072907 -7.93984886 13.6092029 -10.83837891 12.09667969 C-12.34375 10.3984375 -12.34375 10.3984375 -12.84375 6.8984375 C-12.34375 3.3984375 -12.34375 3.3984375 -10.83398438 1.70458984 C-7.28879776 -0.15489529 -3.90879632 -0.03058344 0 0 Z " fill="#000000" transform="translate(280.34375,173.6015625)"/>
<path d="M0 0 C1.21340561 -0.00855011 1.21340561 -0.00855011 2.45132446 -0.01727295 C4.16447643 -0.0267259 5.8776466 -0.0332581 7.59082031 -0.03710938 C10.20930793 -0.04681107 12.82700932 -0.07782918 15.4453125 -0.109375 C17.10937034 -0.11590551 18.77343379 -0.12115579 20.4375 -0.125 C21.21991058 -0.1373468 22.00232117 -0.1496936 22.80844116 -0.16241455 C26.04864062 -0.14916657 28.44766136 -0.0076404 31.34619141 1.50488281 C32.8515625 3.203125 32.8515625 3.203125 33.3515625 6.703125 C32.8515625 10.203125 32.8515625 10.203125 31.34179688 11.89697266 C27.79661026 13.75645779 24.41660882 13.63214594 20.5078125 13.6015625 C19.29865173 13.60586777 19.29865173 13.60586777 18.06506348 13.61026001 C16.36384375 13.61229792 14.66260045 13.60678714 12.96142578 13.59423828 C10.36046859 13.57817999 7.76106523 13.59409543 5.16015625 13.61328125 C3.50520491 13.61129877 1.85025454 13.60745499 0.1953125 13.6015625 C-0.58082397 13.60763519 -1.35696045 13.61370789 -2.15661621 13.6199646 C-5.42586021 13.57747221 -7.74286558 13.43493782 -10.61132812 11.79541016 C-12.48606535 9.85337773 -13.06870768 8.91393883 -13.1484375 6.203125 C-9.96252179 -0.3204167 -6.73843312 0.03641324 0 0 Z " fill="#000000" transform="translate(211.1484375,173.796875)"/>
<path d="M0 0 C0.75792847 -0.00287018 1.51585693 -0.00574036 2.29675293 -0.00869751 C3.8936437 -0.01073216 5.49055974 -0.00524427 7.08740234 0.00732422 C9.52368197 0.0233876 11.95830287 0.00745641 14.39453125 -0.01171875 C15.95052447 -0.00973621 17.50651667 -0.00589231 19.0625 0 C19.78659058 -0.00607269 20.51068115 -0.01214539 21.25671387 -0.0184021 C25.67930967 0.04272268 28.5098327 0.68241531 32.03125 3.3984375 C33.03125 5.2734375 33.03125 5.2734375 33.03125 7.3984375 C30.76971154 12.02920673 30.76971154 12.02920673 28.03125 13.3984375 C25.30660561 13.5217584 22.60852381 13.58683326 19.8828125 13.6015625 C18.66940689 13.61011261 18.66940689 13.61011261 17.43148804 13.61883545 C15.71833607 13.6282884 14.0051659 13.6348206 12.29199219 13.63867188 C9.67350457 13.64837357 7.05580318 13.67939168 4.4375 13.7109375 C2.77344216 13.71746801 1.10937871 13.72271829 -0.5546875 13.7265625 C-1.72830338 13.7450827 -1.72830338 13.7450827 -2.92562866 13.76397705 C-6.16460473 13.75073407 -8.56286589 13.61056984 -11.45947266 12.09667969 C-12.96875 10.3984375 -12.96875 10.3984375 -13.53125 6.8984375 C-12.96875 3.3984375 -12.96875 3.3984375 -10.93164062 1.70458984 C-7.23916039 0.07680728 -3.96142972 -0.03322312 0 0 Z " fill="#000000" transform="translate(280.96875,285.6015625)"/>
<path d="M0 0 C0.76075836 -0.00570007 1.52151672 -0.01140015 2.30532837 -0.01727295 C3.91415012 -0.02671248 5.52299112 -0.03325278 7.13183594 -0.03710938 C9.58563165 -0.04681201 12.03858839 -0.0778428 14.4921875 -0.109375 C16.05728671 -0.11590585 17.62239189 -0.121156 19.1875 -0.125 C20.28304703 -0.1435202 20.28304703 -0.1435202 21.40072632 -0.16241455 C25.82274692 -0.14319987 28.78934998 0.33148793 32.2265625 3.203125 C32.7890625 6.703125 32.7890625 6.703125 32.2265625 10.203125 C29.74367099 12.98156069 28.18369476 13.207519 24.43945312 13.59130859 C22.92069735 13.6110488 21.40165006 13.61344628 19.8828125 13.6015625 C18.67365173 13.60586777 18.67365173 13.60586777 17.44006348 13.61026001 C15.73884375 13.61229792 14.03760045 13.60678714 12.33642578 13.59423828 C9.73546859 13.57817999 7.13606523 13.59409543 4.53515625 13.61328125 C2.88020491 13.61129877 1.22525454 13.60745499 -0.4296875 13.6015625 C-1.20582397 13.60763519 -1.98196045 13.61370789 -2.78161621 13.6199646 C-6.05086021 13.57747221 -8.36786558 13.43493782 -11.23632812 11.79541016 C-13.11106535 9.85337773 -13.69370768 8.91393883 -13.7734375 6.203125 C-12.5234375 3.515625 -12.5234375 3.515625 -10.7734375 1.203125 C-7.14172335 -0.00744638 -3.78296115 0.02189112 0 0 Z " fill="#000000" transform="translate(211.7734375,285.796875)"/>
<path d="M0 0 C1.3147229 -0.01354271 1.3147229 -0.01354271 2.65600586 -0.02735901 C4.50859153 -0.04186197 6.36122843 -0.05074836 8.21386719 -0.05444336 C11.05230396 -0.06636343 13.88858314 -0.11556594 16.7265625 -0.16601562 C18.52603104 -0.17547713 20.32551295 -0.18271347 22.125 -0.1875 C22.97505615 -0.20703232 23.8251123 -0.22656464 24.70092773 -0.24668884 C26.93203499 -0.22954418 28.89721602 -0.16689209 31.0625 0.37109375 C33.1640625 2.70288086 33.1640625 2.70288086 34.0625 5.37109375 C33.375 8.62109375 33.375 8.62109375 32.0625 11.37109375 C28.75803107 13.02332822 25.07496106 12.55568838 21.44140625 12.57421875 C20.157855 12.58276886 20.157855 12.58276886 18.84837341 12.5914917 C17.03686766 12.60094474 15.22534468 12.60747689 13.41381836 12.61132812 C10.63950734 12.62104295 7.86593422 12.65206666 5.09179688 12.68359375 C3.33333774 12.69012284 1.5748733 12.69537368 -0.18359375 12.69921875 C-1.01491318 12.71156555 -1.8462326 12.72391235 -2.70274353 12.7366333 C-8.48348205 12.71422282 -8.48348205 12.71422282 -10.65711975 11.07147217 C-12.77109267 8.2640609 -12.30535043 5.74305607 -11.9375 2.37109375 C-8.0011066 -0.25316851 -4.573325 0.02885148 0 0 Z " fill="#000000" transform="translate(279.9375,323.62890625)"/>
<path d="M0 0 C1.65755886 -0.0127373 3.31548587 0.00269355 4.97265625 0.04077148 C6.28737915 0.04426857 6.28737915 0.04426857 7.62866211 0.0478363 C9.48138157 0.0575778 11.33407104 0.07937434 13.18652344 0.11230469 C16.02453632 0.16168047 18.86081532 0.17378231 21.69921875 0.17944336 C23.49871638 0.19353072 25.29819894 0.20973562 27.09765625 0.22827148 C28.37274048 0.23631554 28.37274048 0.23631554 29.67358398 0.24452209 C33.61025933 0.32409671 35.69014656 0.36935877 39.03515625 2.59936523 C39.7022746 8.71461676 39.7022746 8.71461676 37.75378418 11.29875183 C34.72993108 13.58712606 30.96165225 13.0031832 27.31640625 12.96264648 C26.46212036 12.96314499 25.60783447 12.96364349 24.72766113 12.9641571 C22.92209547 12.96181738 21.1165265 12.9520948 19.31103516 12.93554688 C16.5456021 12.91195435 13.78113312 12.91498655 11.015625 12.92163086 C9.261713 12.91605402 7.50780506 12.9089441 5.75390625 12.90014648 C4.51163269 12.9015136 4.51163269 12.9015136 3.2442627 12.90290833 C-0.66275706 12.85459884 -2.64200757 12.81458936 -5.96484375 10.59936523 C-7.12222923 7.54056075 -7.12813264 6.05989627 -6.03125 2.96630859 C-3.69860706 0.29440721 -3.3499503 0.23096101 0 0 Z " fill="#000000" transform="translate(204.96484375,323.400634765625)"/>
<path d="M0 0 C0.85570084 -0.00570007 1.71140167 -0.01140015 2.59303284 -0.01727295 C4.40453859 -0.02672599 6.21606157 -0.03325814 8.02758789 -0.03710938 C10.80189891 -0.0468242 13.57547203 -0.07784791 16.34960938 -0.109375 C18.10806851 -0.11590409 19.86653295 -0.12115493 21.625 -0.125 C22.45631943 -0.1373468 23.28763885 -0.1496936 24.14414978 -0.16241455 C29.92385163 -0.14000809 29.92385163 -0.14000809 32.10243225 1.50274658 C34.18920143 4.28251121 33.68279558 6.86034241 33.37890625 10.203125 C30.27114829 13.31088296 26.49488387 12.54869463 22.3203125 12.57421875 C20.97017311 12.58776146 20.97017311 12.58776146 19.59275818 12.60157776 C17.68711687 12.61609927 15.78142549 12.6249717 13.87573242 12.62866211 C10.95601706 12.64056543 8.03840999 12.68973651 5.11914062 12.74023438 C3.26954159 12.74969742 1.41992955 12.75693302 -0.4296875 12.76171875 C-1.74228798 12.79101723 -1.74228798 12.79101723 -3.08140564 12.82090759 C-5.36938655 12.80382793 -7.39748751 12.74194858 -9.62109375 12.203125 C-11.73852539 9.87133789 -11.73852539 9.87133789 -12.62109375 7.203125 C-11.93359375 3.953125 -11.93359375 3.953125 -10.62109375 1.203125 C-7.31662482 -0.44910947 -3.63355481 0.01853037 0 0 Z " fill="#000000" transform="translate(210.62109375,248.796875)"/>
<path d="M0 0 C0.90009293 -0.00902847 1.80018585 -0.01805695 2.72755432 -0.02735901 C4.63319563 -0.04188052 6.53888701 -0.05075295 8.44458008 -0.05444336 C11.36429544 -0.06634668 14.28190251 -0.11551776 17.20117188 -0.16601562 C19.05077091 -0.17547867 20.90038295 -0.18271427 22.75 -0.1875 C23.62506699 -0.20703232 24.50013397 -0.22656464 25.40171814 -0.24668884 C27.68969905 -0.22960918 29.71780001 -0.16772983 31.94140625 0.37109375 C34.05883789 2.70288086 34.05883789 2.70288086 34.94140625 5.37109375 C34.25390625 8.62109375 34.25390625 8.62109375 32.94140625 11.37109375 C29.63693732 13.02332822 25.95386731 12.55568838 22.3203125 12.57421875 C21.03676125 12.58276886 21.03676125 12.58276886 19.72727966 12.5914917 C17.91577391 12.60094474 16.10425093 12.60747689 14.29272461 12.61132812 C11.51841359 12.62104295 8.74484047 12.65206666 5.97070312 12.68359375 C4.21224399 12.69012284 2.45377955 12.69537368 0.6953125 12.69921875 C-0.13600693 12.71156555 -0.96732635 12.72391235 -1.82383728 12.7366333 C-7.60353913 12.71422684 -7.60353913 12.71422684 -9.78211975 11.07147217 C-11.86888893 8.29170754 -11.36248308 5.71387634 -11.05859375 2.37109375 C-7.95083579 -0.73666421 -4.17457137 0.02552412 0 0 Z " fill="#000000" transform="translate(279.05859375,211.62890625)"/>
<path d="M0 0 C0.85428589 -0.00287018 1.70857178 -0.00574036 2.58874512 -0.00869751 C4.39429385 -0.01073831 6.19986469 -0.00520733 8.00537109 0.00732422 C10.77101012 0.02337806 13.53518775 0.00747651 16.30078125 -0.01171875 C18.05469073 -0.00973632 19.8085993 -0.00589265 21.5625 0 C22.39068237 -0.00607269 23.21886475 -0.01214539 24.07214355 -0.0184021 C29.86661103 0.05267755 29.86661103 0.05267755 31.96862793 1.80551147 C33.58413389 3.76600075 34.13133049 4.84980577 34.28125 7.3984375 C33.36352539 9.99633789 33.36352539 9.99633789 31.28125 12.3984375 C28.22770974 13.14651828 25.21873089 13.02687095 22.08984375 12.95703125 C21.1887941 12.95469986 20.28774445 12.95236847 19.35939026 12.94996643 C17.45539884 12.9402251 15.55143661 12.91842902 13.64770508 12.88549805 C10.72629126 12.8360651 7.80655995 12.82401748 4.88476562 12.81835938 C3.03644034 12.80427463 1.18812972 12.78807067 -0.66015625 12.76953125 C-1.53724747 12.76416855 -2.41433868 12.75880585 -3.31800842 12.75328064 C-9.48548499 12.63170251 -9.48548499 12.63170251 -11.71875 10.3984375 C-12.28649389 4.15325476 -12.28649389 4.15325476 -10.44128418 1.70004272 C-7.41424356 -0.58729179 -3.64908006 -0.02675708 0 0 Z " fill="#000000" transform="translate(279.71875,248.6015625)"/>
<path d="M0 0 C1.65755886 -0.0127373 3.31548587 0.00269355 4.97265625 0.04077148 C6.28737915 0.04426857 6.28737915 0.04426857 7.62866211 0.0478363 C9.48138157 0.0575778 11.33407104 0.07937434 13.18652344 0.11230469 C16.02453632 0.16168047 18.86081532 0.17378231 21.69921875 0.17944336 C23.49871638 0.19353072 25.29819894 0.20973562 27.09765625 0.22827148 C28.37274048 0.23631554 28.37274048 0.23631554 29.67358398 0.24452209 C33.61025933 0.32409671 35.69014656 0.36935877 39.03515625 2.59936523 C39.7022746 8.71461676 39.7022746 8.71461676 37.75378418 11.29875183 C34.72993108 13.58712606 30.96165225 13.0031832 27.31640625 12.96264648 C26.46212036 12.96314499 25.60783447 12.96364349 24.72766113 12.9641571 C22.92209547 12.96181738 21.1165265 12.9520948 19.31103516 12.93554688 C16.5456021 12.91195435 13.78113312 12.91498655 11.015625 12.92163086 C9.261713 12.91605402 7.50780506 12.9089441 5.75390625 12.90014648 C4.51163269 12.9015136 4.51163269 12.9015136 3.2442627 12.90290833 C-0.66275706 12.85459884 -2.64200757 12.81458936 -5.96484375 10.59936523 C-7.12222923 7.54056075 -7.12813264 6.05989627 -6.03125 2.96630859 C-3.69860706 0.29440721 -3.3499503 0.23096101 0 0 Z " fill="#000000" transform="translate(204.96484375,211.400634765625)"/>
<path d="M0 0 C0.85428589 -0.0004985 1.70857178 -0.00099701 2.58874512 -0.00151062 C4.39431078 0.0008291 6.19987975 0.01055168 8.00537109 0.02709961 C10.77080415 0.05069213 13.53527313 0.04765993 16.30078125 0.04101562 C18.05469325 0.04659247 19.80860119 0.05370239 21.5625 0.0625 C22.80477356 0.06113289 22.80477356 0.06113289 24.07214355 0.05973816 C27.97916331 0.10804764 29.95841382 0.14805713 33.28125 2.36328125 C34.43863548 5.42208574 34.44453889 6.90275022 33.34765625 9.99633789 C31.01501331 12.66823928 30.66635655 12.73168548 27.31640625 12.96264648 C25.65884739 12.97538379 24.00092038 12.95995293 22.34375 12.921875 C21.46726807 12.91954361 20.59078613 12.91721222 19.68774414 12.91481018 C17.83502468 12.90506868 15.98233521 12.88327214 14.12988281 12.8503418 C11.29186993 12.80096602 8.45559093 12.78886418 5.6171875 12.78320312 C3.81768987 12.76911576 2.01820731 12.75291087 0.21875 12.734375 C-1.05633423 12.72633095 -1.05633423 12.72633095 -2.35717773 12.71812439 C-6.29385308 12.63854977 -8.37374031 12.59328771 -11.71875 10.36328125 C-12.38586835 4.24802972 -12.38586835 4.24802972 -10.43737793 1.66389465 C-7.41352483 -0.62447958 -3.645246 -0.04053672 0 0 Z " fill="#000000" transform="translate(279.71875,136.63671875)"/>
<path d="M0 0 C0.85570084 -0.00570007 1.71140167 -0.01140015 2.59303284 -0.01727295 C4.40453859 -0.02672599 6.21606157 -0.03325814 8.02758789 -0.03710938 C10.80189891 -0.0468242 13.57547203 -0.07784791 16.34960938 -0.109375 C18.10806851 -0.11590409 19.86653295 -0.12115493 21.625 -0.125 C22.45631943 -0.1373468 23.28763885 -0.1496936 24.14414978 -0.16241455 C29.9248883 -0.14000407 29.9248883 -0.14000407 32.098526 1.50274658 C34.21249892 4.31015785 33.74675668 6.83116268 33.37890625 10.203125 C29.44251285 12.82738726 26.01473125 12.54536727 21.44140625 12.57421875 C20.12668335 12.58776146 20.12668335 12.58776146 18.78540039 12.60157776 C16.93281472 12.61608072 15.08017782 12.62496711 13.22753906 12.62866211 C10.38910229 12.64058218 7.55282311 12.68978469 4.71484375 12.74023438 C2.91537521 12.74969588 1.1158933 12.75693222 -0.68359375 12.76171875 C-1.5336499 12.78125107 -2.38370605 12.80078339 -3.25952148 12.82090759 C-5.49062874 12.80376293 -7.45580977 12.74111084 -9.62109375 12.203125 C-11.72265625 9.87133789 -11.72265625 9.87133789 -12.62109375 7.203125 C-11.93359375 3.953125 -11.93359375 3.953125 -10.62109375 1.203125 C-7.31662482 -0.44910947 -3.63355481 0.01853037 0 0 Z " fill="#000000" transform="translate(210.62109375,136.796875)"/>
</svg>
